<svg width="213" height="137" viewBox="0 0 213 137" fill="none" xmlns="http://www.w3.org/2000/svg">
<path d="M58.5138 86.9739V98.9739C58.5138 99.2391 58.4084 99.4934 58.2209 99.681C58.0334 99.8685 57.779 99.9739 57.5138 99.9739H39.5138C39.2486 99.9739 38.9942 99.8685 38.8067 99.681C38.6192 99.4934 38.5138 99.2391 38.5138 98.9739V85.9739H57.5138C57.779 85.9739 58.0334 86.0792 58.2209 86.2668C58.4084 86.4543 58.5138 86.7087 58.5138 86.9739ZM48.9278 83.9739H38.5138V82.9739C38.5138 82.7087 38.6192 82.4543 38.8067 82.2668C38.9942 82.0792 39.2486 81.9739 39.5138 81.9739H46.9278L48.9278 83.9739Z" fill="#555ED3"/>
<path d="M200.326 22.6117L204.809 14.8487L208.341 20.9657C206.641 22.193 204.597 22.852 202.499 22.8487C201.753 22.8487 201.026 22.7667 200.326 22.6117ZM198.389 21.9687C197.105 21.3878 195.957 20.5425 195.021 19.488C194.085 18.4334 193.382 17.1934 192.957 15.8487H201.922L198.389 21.9677V21.9687ZM192.549 13.8487C192.406 12.446 192.563 11.0288 193.008 9.69094C193.453 8.35306 194.177 7.12492 195.132 6.0877L199.611 13.8487H192.549ZM196.658 4.7317C198.359 3.50459 200.403 2.8456 202.499 2.8487C203.245 2.8487 203.972 2.9307 204.672 3.0857L200.189 10.8487L196.658 4.7317ZM206.609 3.7287C207.894 4.30959 209.042 5.15489 209.978 6.20943C210.914 7.26397 211.617 8.50404 212.041 9.8487H203.076L206.609 3.7297V3.7287ZM212.449 11.8487C212.593 13.2515 212.436 14.6686 211.991 16.0065C211.546 17.3443 210.822 18.5725 209.866 19.6097L205.387 11.8487H212.451H212.449Z" fill="#AEB6DA"/>
<path d="M200.326 62.6117L204.809 54.8487L208.341 60.9657C206.641 62.193 204.597 62.852 202.499 62.8487C201.753 62.8487 201.026 62.7667 200.326 62.6117ZM198.389 61.9687C197.105 61.3878 195.957 60.5425 195.021 59.488C194.085 58.4334 193.382 57.1934 192.957 55.8487H201.922L198.389 61.9677V61.9687ZM192.549 53.8487C192.406 52.446 192.563 51.0288 193.008 49.6909C193.453 48.3531 194.177 47.1249 195.132 46.0877L199.611 53.8487H192.549ZM196.658 44.7317C198.359 43.5046 200.403 42.8456 202.499 42.8487C203.245 42.8487 203.972 42.9307 204.672 43.0857L200.189 50.8487L196.658 44.7317ZM206.609 43.7287C207.894 44.3096 209.042 45.1549 209.978 46.2094C210.914 47.264 211.617 48.504 212.041 49.8487H203.076L206.609 43.7297V43.7287ZM212.449 51.8487C212.593 53.2515 212.436 54.6686 211.991 56.0065C211.546 57.3443 210.822 58.5725 209.866 59.6097L205.387 51.8487H212.451H212.449Z" fill="white"/>
<mask id="path-4-inside-1_29_7" fill="white">
<rect x="0.154663" y="2.96063" width="8.58972" height="10.6872" rx="1"/>
</mask>
<rect x="0.154663" y="2.96063" width="8.58972" height="10.6872" rx="1" stroke="#AEB6DA" stroke-width="3" mask="url(#path-4-inside-1_29_7)"/>
<mask id="path-5-inside-2_29_7" fill="white">
<rect x="11.2913" y="12.0497" width="8.58972" height="10.6872" rx="1"/>
</mask>
<rect x="11.2913" y="12.0497" width="8.58972" height="10.6872" rx="1" stroke="#AEB6DA" stroke-width="3" mask="url(#path-5-inside-2_29_7)"/>
<mask id="path-6-inside-3_29_7" fill="white">
<rect x="0.154663" y="16.1947" width="8.58972" height="6.54212" rx="1"/>
</mask>
<rect x="0.154663" y="16.1947" width="8.58972" height="6.54212" rx="1" fill="#AEB6DA" stroke="#AEB6DA" stroke-width="3" mask="url(#path-6-inside-3_29_7)"/>
<mask id="path-7-inside-4_29_7" fill="white">
<rect x="11.312" y="2.9606" width="8.58972" height="6.54212" rx="1"/>
</mask>
<rect x="11.312" y="2.9606" width="8.58972" height="6.54212" rx="1" stroke="#AEB6DA" stroke-width="3" mask="url(#path-7-inside-4_29_7)"/>
<path d="M96.9545 16.0907V9.81468H98.0195V16.0907H96.9545ZM94.349 13.4852V12.4202H100.625V13.4852H94.349Z" fill="#AEB6DA"/>
<path fill-rule="evenodd" clip-rule="evenodd" d="M80.5674 12.7816L84.0032 16.2174L87.439 12.7816L84.0032 9.34579L80.5674 12.7816ZM78.9895 11.9927C78.5538 12.4284 78.5538 13.1348 78.9895 13.5706L83.2143 17.7953C83.65 18.231 84.3564 18.231 84.7922 17.7953L89.0169 13.5706C89.4526 13.1348 89.4526 12.4284 89.0169 11.9927L84.7922 7.76791C84.3564 7.33219 83.65 7.33219 83.2143 7.76791L78.9895 11.9927Z" fill="#AEB6DA"/>
<path d="M85.7153 20.2963C85.2796 19.8605 85.2796 19.1541 85.7153 18.7184L89.9401 14.4936C90.3758 14.0579 91.0823 14.0579 91.518 14.4936L95.7427 18.7184C96.1785 19.1541 96.1785 19.8605 95.7427 20.2963L91.518 24.521C91.0823 24.9568 90.3758 24.9568 89.9401 24.521L85.7153 20.2963Z" fill="#AEB6DA"/>
<path fill-rule="evenodd" clip-rule="evenodd" d="M87.2932 19.5073L90.729 22.9431L94.1649 19.5073L90.729 16.0715L87.2932 19.5073ZM85.7153 18.7184C85.2796 19.1541 85.2796 19.8605 85.7153 20.2963L89.9401 24.521C90.3758 24.9568 91.0823 24.9568 91.518 24.521L95.7427 20.2963C96.1785 19.8605 96.1785 19.1541 95.7427 18.7184L91.518 14.4936C91.0823 14.0579 90.3758 14.0579 89.9401 14.4936L85.7153 18.7184Z" fill="#AEB6DA"/>
<path fill-rule="evenodd" clip-rule="evenodd" d="M87.1589 6.19006L90.5948 9.62589L94.0306 6.19006L90.5948 2.75424L87.1589 6.19006ZM85.5811 5.40112C85.1453 5.83684 85.1453 6.54328 85.5811 6.979L89.8058 11.2038C90.2415 11.6395 90.948 11.6395 91.3837 11.2038L95.6085 6.979C96.0442 6.54328 96.0442 5.83684 95.6085 5.40112L91.3837 1.17636C90.948 0.740637 90.2415 0.740637 89.8058 1.17636L85.5811 5.40112Z" fill="#AEB6DA"/>
<path d="M119.529 7.90595C119.529 7.82415 119.569 7.74752 119.636 7.70078L127.108 2.49844C127.194 2.43866 127.308 2.43866 127.394 2.49844L134.866 7.70078C134.933 7.74752 134.973 7.82415 134.973 7.90595V23.2123C134.973 23.3503 134.861 23.4623 134.723 23.4623H119.779C119.641 23.4623 119.529 23.3503 119.529 23.2123V7.90595Z" stroke="#AEB6DA" stroke-width="1.5"/>
<line x1="123.604" y1="15.2961" x2="130.909" y2="15.2961" stroke="#AEB6DA" stroke-width="1.5" stroke-linecap="round"/>
<line x1="123.604" y1="19.2359" x2="130.909" y2="19.2359" stroke="#AEB6DA" stroke-width="1.5" stroke-linecap="round"/>
<circle cx="127.236" cy="10.1363" r="2.13074" fill="#AEB6DA"/>
<path d="M154.627 12.8487C154.627 12.1422 154.697 11.4535 154.831 10.7873C155.365 10.7316 155.884 10.5713 156.36 10.3134L156.002 9.65421L156.36 10.3134C157.024 9.953 157.575 9.416 157.953 8.76175C158.331 8.10751 158.521 7.3615 158.501 6.60619C158.487 6.06519 158.366 5.53452 158.147 5.04403C159.187 4.12549 160.4 3.42433 161.715 2.98198C162.031 3.41697 162.43 3.78747 162.891 4.07049C163.536 4.46579 164.277 4.67502 165.033 4.67502C165.789 4.67502 166.531 4.46579 167.175 4.07049C167.637 3.78747 168.036 3.41697 168.351 2.98198C169.666 3.42431 170.879 4.12541 171.919 5.04387C171.7 5.53451 171.579 6.06541 171.564 6.60666C171.545 7.36231 171.734 8.10869 172.113 8.76321C172.491 9.41773 173.043 9.95489 173.707 10.3152C174.183 10.5731 174.703 10.7332 175.237 10.7888C175.37 11.4541 175.44 12.1425 175.44 12.8487C175.44 13.5551 175.37 14.2437 175.236 14.9099C174.703 14.9655 174.183 15.1256 173.708 15.3834C173.043 15.7437 172.492 16.2807 172.114 16.935C171.735 17.5893 171.546 18.3354 171.565 19.0909C171.579 19.632 171.7 20.1628 171.919 20.6534C170.879 21.5719 169.666 22.2731 168.351 22.7154C168.036 22.2804 167.637 21.9099 167.175 21.6269C166.531 21.2316 165.789 21.0224 165.033 21.0224C164.277 21.0224 163.536 21.2316 162.891 21.6269C162.43 21.9099 162.031 22.2804 161.715 22.7154C160.401 22.2731 159.187 21.572 158.148 20.6535C158.367 20.1629 158.488 19.632 158.502 19.0907C158.522 18.3351 158.332 17.5887 157.954 16.9342C157.576 16.2797 157.024 15.7425 156.359 15.3822L156.002 16.0415L156.359 15.3822C155.884 15.1244 155.364 14.9642 154.83 14.9087C154.697 14.2439 154.627 13.5555 154.627 12.8487Z" stroke="#AEB6DA" stroke-width="1.5"/>
<circle cx="165.034" cy="12.4569" r="2.54063" fill="#AEB6DA"/>
<mask id="path-19-inside-5_29_7" fill="white">
<rect x="38.0555" y="0.230591" width="18.6438" height="21.889" rx="1"/>
</mask>
<rect x="38.0555" y="0.230591" width="18.6438" height="21.889" rx="1" stroke="#AEB6DA" stroke-width="3" mask="url(#path-19-inside-5_29_7)"/>
<path d="M42.0054 10.0944H52.8027" stroke="#AEB6DA" stroke-width="1.5" stroke-linecap="round"/>
<path d="M42.0054 13.2335H52.8027" stroke="#AEB6DA" stroke-width="1.5" stroke-linecap="round"/>
<path d="M42.0054 16.3725L49.5138 16.3725" stroke="#AEB6DA" stroke-width="1.5" stroke-linecap="round"/>
<rect x="41.4027" y="3.58017" width="7.34453" height="3.89307" rx="1" fill="#AEB6DA"/>
<path fill-rule="evenodd" clip-rule="evenodd" d="M41.4027 21.4224V24.3511C41.4027 24.9673 41.9022 25.4668 42.5184 25.4668H58.9307C59.5469 25.4668 60.0465 24.9673 60.0465 24.3511V4.69352C60.0465 4.07732 59.5469 3.57779 58.9307 3.57779H56.2522V5.25139H58.3729V23.7932H43.0763V21.4224H41.4027Z" fill="#AEB6DA"/>
<mask id="path-25-inside-6_29_7" fill="white">
<rect x="0.154663" y="42.9606" width="8.58972" height="10.6872" rx="1"/>
</mask>
<rect x="0.154663" y="42.9606" width="8.58972" height="10.6872" rx="1" stroke="white" stroke-width="3" mask="url(#path-25-inside-6_29_7)"/>
<mask id="path-26-inside-7_29_7" fill="white">
<rect x="11.2913" y="52.0497" width="8.58972" height="10.6872" rx="1"/>
</mask>
<rect x="11.2913" y="52.0497" width="8.58972" height="10.6872" rx="1" stroke="white" stroke-width="3" mask="url(#path-26-inside-7_29_7)"/>
<mask id="path-27-inside-8_29_7" fill="white">
<rect x="0.154663" y="56.1947" width="8.58972" height="6.54212" rx="1"/>
</mask>
<rect x="0.154663" y="56.1947" width="8.58972" height="6.54212" rx="1" fill="white" stroke="white" stroke-width="3" mask="url(#path-27-inside-8_29_7)"/>
<mask id="path-28-inside-9_29_7" fill="white">
<rect x="11.312" y="42.9606" width="8.58972" height="6.54212" rx="1"/>
</mask>
<rect x="11.312" y="42.9606" width="8.58972" height="6.54212" rx="1" stroke="white" stroke-width="3" mask="url(#path-28-inside-9_29_7)"/>
<path d="M96.9545 56.0907V49.8147H98.0195V56.0907H96.9545ZM94.349 53.4852V52.4202H100.625V53.4852H94.349Z" fill="white"/>
<path fill-rule="evenodd" clip-rule="evenodd" d="M80.5674 52.7816L84.0032 56.2174L87.439 52.7816L84.0032 49.3458L80.5674 52.7816ZM78.9895 51.9927C78.5538 52.4284 78.5538 53.1348 78.9895 53.5706L83.2143 57.7953C83.65 58.231 84.3564 58.231 84.7922 57.7953L89.0169 53.5706C89.4526 53.1348 89.4526 52.4284 89.0169 51.9927L84.7922 47.7679C84.3564 47.3322 83.65 47.3322 83.2143 47.7679L78.9895 51.9927Z" fill="white"/>
<path d="M85.7153 60.2963C85.2796 59.8605 85.2796 59.1541 85.7153 58.7184L89.9401 54.4936C90.3758 54.0579 91.0823 54.0579 91.518 54.4936L95.7427 58.7184C96.1785 59.1541 96.1785 59.8605 95.7427 60.2963L91.518 64.521C91.0823 64.9568 90.3758 64.9568 89.9401 64.521L85.7153 60.2963Z" fill="white"/>
<path fill-rule="evenodd" clip-rule="evenodd" d="M87.2932 59.5073L90.729 62.9431L94.1649 59.5073L90.729 56.0715L87.2932 59.5073ZM85.7153 58.7184C85.2796 59.1541 85.2796 59.8605 85.7153 60.2963L89.9401 64.521C90.3758 64.9568 91.0823 64.9568 91.518 64.521L95.7427 60.2963C96.1785 59.8605 96.1785 59.1541 95.7427 58.7184L91.518 54.4936C91.0823 54.0579 90.3758 54.0579 89.9401 54.4936L85.7153 58.7184Z" fill="white"/>
<path fill-rule="evenodd" clip-rule="evenodd" d="M87.1589 46.1901L90.5948 49.6259L94.0306 46.1901L90.5948 42.7542L87.1589 46.1901ZM85.5811 45.4011C85.1453 45.8368 85.1453 46.5433 85.5811 46.979L89.8058 51.2038C90.2415 51.6395 90.948 51.6395 91.3837 51.2038L95.6085 46.979C96.0442 46.5433 96.0442 45.8368 95.6085 45.4011L91.3837 41.1764C90.948 40.7406 90.2415 40.7406 89.8058 41.1764L85.5811 45.4011Z" fill="white"/>
<path d="M119.529 47.906C119.529 47.8242 119.569 47.7475 119.636 47.7008L127.108 42.4984C127.194 42.4387 127.308 42.4387 127.394 42.4984L134.866 47.7008C134.933 47.7475 134.973 47.8241 134.973 47.906V63.2123C134.973 63.3503 134.861 63.4623 134.723 63.4623H119.779C119.641 63.4623 119.529 63.3503 119.529 63.2123V47.906Z" stroke="white" stroke-width="1.5"/>
<line x1="123.604" y1="55.2961" x2="130.909" y2="55.2961" stroke="white" stroke-width="1.5" stroke-linecap="round"/>
<line x1="123.604" y1="59.2359" x2="130.909" y2="59.2359" stroke="white" stroke-width="1.5" stroke-linecap="round"/>
<circle cx="127.236" cy="50.1363" r="2.13074" fill="white"/>
<path d="M154.627 52.8487C154.627 52.1422 154.697 51.4535 154.831 50.7873C155.365 50.7316 155.884 50.5713 156.36 50.3134L156.002 49.6542L156.36 50.3134C157.024 49.953 157.575 49.416 157.953 48.7618C158.331 48.1075 158.521 47.3615 158.501 46.6062C158.487 46.0652 158.366 45.5345 158.147 45.044C159.187 44.1255 160.4 43.4243 161.715 42.982C162.031 43.417 162.43 43.7875 162.891 44.0705C163.536 44.4658 164.277 44.675 165.033 44.675C165.789 44.675 166.531 44.4658 167.175 44.0705C167.637 43.7875 168.036 43.417 168.351 42.982C169.666 43.4243 170.879 44.1254 171.919 45.0439C171.7 45.5345 171.579 46.0654 171.564 46.6067C171.545 47.3623 171.734 48.1087 172.113 48.7632C172.491 49.4177 173.043 49.9549 173.707 50.3152C174.183 50.5731 174.703 50.7332 175.237 50.7888C175.37 51.4541 175.44 52.1425 175.44 52.8487C175.44 53.5551 175.37 54.2437 175.236 54.9099C174.703 54.9655 174.183 55.1256 173.708 55.3834C173.043 55.7437 172.492 56.2807 172.114 56.935C171.735 57.5893 171.546 58.3354 171.565 59.0909C171.579 59.632 171.7 60.1628 171.919 60.6534C170.879 61.5719 169.666 62.2731 168.351 62.7154C168.036 62.2804 167.637 61.9099 167.175 61.6269C166.531 61.2316 165.789 61.0224 165.033 61.0224C164.277 61.0224 163.536 61.2316 162.891 61.6269C162.43 61.9099 162.031 62.2804 161.715 62.7154C160.401 62.2731 159.187 61.572 158.148 60.6535C158.367 60.1629 158.488 59.632 158.502 59.0907C158.522 58.3351 158.332 57.5887 157.954 56.9342C157.576 56.2797 157.024 55.7425 156.359 55.3822L156.002 56.0415L156.359 55.3822C155.884 55.1244 155.364 54.9642 154.83 54.9087C154.697 54.2439 154.627 53.5555 154.627 52.8487Z" stroke="white" stroke-width="1.5"/>
<circle cx="165.034" cy="52.4569" r="2.54063" fill="white"/>
<mask id="path-40-inside-10_29_7" fill="white">
<rect x="38.0555" y="40.2306" width="18.6438" height="21.889" rx="1"/>
</mask>
<rect x="38.0555" y="40.2306" width="18.6438" height="21.889" rx="1" stroke="white" stroke-width="3" mask="url(#path-40-inside-10_29_7)"/>
<path d="M42.0054 50.0944H52.8027" stroke="white" stroke-width="1.5" stroke-linecap="round"/>
<path d="M42.0054 53.2335H52.8027" stroke="white" stroke-width="1.5" stroke-linecap="round"/>
<path d="M42.0054 56.3725L49.5138 56.3725" stroke="white" stroke-width="1.5" stroke-linecap="round"/>
<rect x="41.4027" y="43.5802" width="7.34453" height="3.89307" rx="1" fill="white"/>
<path fill-rule="evenodd" clip-rule="evenodd" d="M41.4027 61.4224V64.3511C41.4027 64.9673 41.9022 65.4668 42.5184 65.4668H58.9307C59.5469 65.4668 60.0465 64.9673 60.0465 64.3511V44.6935C60.0465 44.0773 59.5469 43.5778 58.9307 43.5778H56.2522V45.2514H58.3729V63.7932H43.0763V61.4224H41.4027Z" fill="white"/>
<path d="M15.1788 98.2025H4.87753C4.68238 98.2025 4.49523 98.1251 4.35724 97.987C4.21926 97.8491 4.14173 97.6619 4.14173 97.4667V90.8445H1.93433L9.53298 83.9368C9.66844 83.8135 9.84501 83.7452 10.0281 83.7452C10.2113 83.7452 10.3879 83.8135 10.5233 83.9368L18.1219 90.8445H15.9146V97.4667C15.9146 97.6619 15.837 97.8491 15.6991 97.987C15.5611 98.1251 15.3739 98.2025 15.1788 98.2025ZM5.61334 96.731H14.4429V89.4884L10.0281 85.4754L5.61334 89.4884V96.731Z" fill="#2B2E3F"/>
<path d="M97.5127 87V99.0676C97.5136 99.1858 97.4911 99.303 97.4467 99.4125C97.4022 99.522 97.3366 99.6217 97.2536 99.7058C97.1706 99.79 97.0719 99.857 96.963 99.903C96.8541 99.949 96.7372 99.9731 96.619 99.9739H82.2064C81.9696 99.9739 81.7424 99.8798 81.5748 99.7124C81.4072 99.545 81.313 99.3179 81.3127 99.0811V82.8667C81.3127 82.3834 81.715 81.9739 82.2109 81.9739L93 81.9739L91.2127 87.3739C91.2127 87.6126 91.3076 87.8415 91.4763 88.0103C91.6451 88.1791 91.874 88.2739 92.1127 88.2739L97.5127 87ZM97.5127 87L89.5 89.9866L92.9991 81.9766L97.5127 87Z" fill="#AEB6DA"/>
<path d="M131.236 81.9739H137.236V87.9739H135.236V83.9739H131.236V81.9739ZM117.236 81.9739H123.236V83.9739H119.236V87.9739H117.236V81.9739ZM135.236 97.9739V93.9739H137.236V99.9739H131.236V97.9739H135.236ZM119.236 97.9739H123.236V99.9739H117.236V93.9739H119.236V97.9739Z" fill="#555ED3"/>
<path d="M171.034 85.9739H175.034V87.9739H169.034V81.9739H171.034V85.9739ZM161.034 87.9739H155.034V85.9739H159.034V81.9739H161.034V87.9739ZM171.034 95.9739V99.9739H169.034V93.9739H175.034V95.9739H171.034ZM161.034 93.9739V99.9739H159.034V95.9739H155.034V93.9739H161.034Z" fill="#555ED3"/>
<path d="M208.5 97.9739H209.5V85.8019L207.672 83.9739H206.5V87.9739H197.5V83.9739H195.5V97.9739H196.5V90.9739H208.5V97.9739ZM194.5 81.9739H208.5L211.207 84.6809C211.394 84.8684 211.499 85.1227 211.5 85.3879V98.9739C211.5 99.2391 211.394 99.4935 211.207 99.681C211.019 99.8685 210.765 99.9739 210.5 99.9739H194.5C194.234 99.9739 193.98 99.8685 193.792 99.681C193.605 99.4935 193.5 99.2391 193.5 98.9739V82.9739C193.5 82.7087 193.605 82.4543 193.792 82.2668C193.98 82.0792 194.234 81.9739 194.5 81.9739ZM198.5 92.9739V97.9739H206.5V92.9739H198.5Z" fill="white"/>
<path d="M9.08165 126.48V122.693H10.975V126.48H14.7616V128.373H10.975V132.16H9.08165V128.373H5.29498V126.48H9.08165ZM10.0283 136.893C4.79987 136.893 0.561646 132.655 0.561646 127.427C0.561646 122.198 4.79987 117.96 10.0283 117.96C15.2568 117.96 19.495 122.198 19.495 127.427C19.495 132.655 15.2568 136.893 10.0283 136.893ZM10.0283 135C12.0369 135 13.9632 134.202 15.3835 132.782C16.8037 131.361 17.6016 129.435 17.6016 127.427C17.6016 125.418 16.8037 123.492 15.3835 122.071C13.9632 120.651 12.0369 119.853 10.0283 119.853C8.01974 119.853 6.09344 120.651 4.67316 122.071C3.25288 123.492 2.45498 125.418 2.45498 127.427C2.45498 129.435 3.25288 131.361 4.67316 132.782C6.09344 134.202 8.01974 135 10.0283 135Z" fill="white"/>
<path d="M49.364 125.95L54.314 121L55.728 122.414L50.778 127.364L55.728 132.314L54.314 133.728L49.364 128.778L44.414 133.728L43 132.314L47.95 127.364L43 122.414L44.414 121L49.364 125.95Z" fill="#2B2E3F"/>
<path d="M86.4599 122.409C86.1405 122.409 85.8341 122.282 85.6082 122.056C85.3824 121.83 85.2555 121.524 85.2555 121.204C85.2555 120.885 85.3824 120.579 85.6082 120.353C85.8341 120.127 86.1405 120 86.4599 120C86.7793 120 87.0856 120.127 87.3115 120.353C87.5374 120.579 87.6643 120.885 87.6643 121.204C87.6643 121.524 87.5374 121.83 87.3115 122.056C87.0856 122.282 86.7793 122.409 86.4599 122.409ZM86.4599 128.029C86.1405 128.029 85.8341 127.902 85.6082 127.676C85.3824 127.451 85.2555 127.144 85.2555 126.825C85.2555 126.505 85.3824 126.199 85.6082 125.973C85.8341 125.747 86.1405 125.62 86.4599 125.62C86.7793 125.62 87.0856 125.747 87.3115 125.973C87.5374 126.199 87.6643 126.505 87.6643 126.825C87.6643 127.144 87.5374 127.451 87.3115 127.676C87.0856 127.902 86.7793 128.029 86.4599 128.029ZM86.4599 133.569C86.1405 133.569 85.8341 133.443 85.6082 133.217C85.3824 132.991 85.2555 132.684 85.2555 132.365C85.2555 132.046 85.3824 131.739 85.6082 131.513C85.8341 131.288 86.1405 131.161 86.4599 131.161C86.7793 131.161 87.0856 131.288 87.3115 131.513C87.5374 131.739 87.6643 132.046 87.6643 132.365C87.6643 132.684 87.5374 132.991 87.3115 133.217C87.0856 133.443 86.7793 133.569 86.4599 133.569Z" fill="#888888"/>
<path d="M92.1018 122.409C91.7824 122.409 91.4761 122.282 91.2502 122.056C91.0244 121.83 90.8975 121.524 90.8975 121.204C90.8975 120.885 91.0244 120.579 91.2502 120.353C91.4761 120.127 91.7824 120 92.1018 120C92.4213 120 92.7276 120.127 92.9535 120.353C93.1793 120.579 93.3062 120.885 93.3062 121.204C93.3062 121.524 93.1793 121.83 92.9535 122.056C92.7276 122.282 92.4213 122.409 92.1018 122.409ZM92.1018 128.029C91.7824 128.029 91.4761 127.902 91.2502 127.676C91.0244 127.451 90.8975 127.144 90.8975 126.825C90.8975 126.505 91.0244 126.199 91.2502 125.973C91.4761 125.747 91.7824 125.62 92.1018 125.62C92.4213 125.62 92.7276 125.747 92.9535 125.973C93.1793 126.199 93.3062 126.505 93.3062 126.825C93.3062 127.144 93.1793 127.451 92.9535 127.676C92.7276 127.902 92.4213 128.029 92.1018 128.029ZM92.1018 133.569C91.7824 133.569 91.4761 133.443 91.2502 133.217C91.0244 132.991 90.8975 132.684 90.8975 132.365C90.8975 132.046 91.0244 131.739 91.2502 131.513C91.4761 131.288 91.7824 131.161 92.1018 131.161C92.4213 131.161 92.7276 131.288 92.9535 131.513C93.1793 131.739 93.3062 132.046 93.3062 132.365C93.3062 132.684 93.1793 132.991 92.9535 133.217C92.7276 133.443 92.4213 133.569 92.1018 133.569Z" fill="#888888"/>
<path d="M127.364 127.95L132.314 123L133.728 124.414L127.364 130.778L121 124.414L122.414 123L127.364 127.95Z" fill="#2B2E3F"/>
<path d="M161 120H172.1V121.708H161V120ZM161 125.977H172.1V127.685H161V125.977ZM161 131.954H172.1V133.662H161V131.954Z" fill="#AEB6DA"/>
<path d="M195 120H201V121.75H195V120ZM195 126.125H201V127.875H195V126.125ZM195 132.25H201V134H195V132.25Z" fill="#AEB6DA"/>
<path d="M203 120H209V121.75H203V120ZM203 126.125H209V127.875H203V126.125ZM203 132.25H209V134H203V132.25Z" fill="#AEB6DA"/>
</svg>
