<svg width="213" height="100" viewBox="0 0 213 100" fill="none" xmlns="http://www.w3.org/2000/svg">
<path d="M58.5139 86.9739V98.9739C58.5139 99.2391 58.4086 99.4934 58.221 99.681C58.0335 99.8685 57.7791 99.9739 57.5139 99.9739H39.5139C39.2487 99.9739 38.9943 99.8685 38.8068 99.681C38.6193 99.4934 38.5139 99.2391 38.5139 98.9739V85.9739H57.5139C57.7791 85.9739 58.0335 86.0792 58.221 86.2668C58.4086 86.4543 58.5139 86.7087 58.5139 86.9739ZM48.9279 83.9739H38.5139V82.9739C38.5139 82.7087 38.6193 82.4543 38.8068 82.2668C38.9943 82.0792 39.2487 81.9739 39.5139 81.9739H46.9279L48.9279 83.9739Z" fill="#555ED3"/>
<path d="M200.327 22.6117L204.81 14.8487L208.342 20.9657C206.641 22.193 204.597 22.852 202.5 22.8487C201.754 22.8487 201.027 22.7667 200.327 22.6117ZM198.39 21.9687C197.105 21.3878 195.957 20.5425 195.021 19.488C194.085 18.4334 193.382 17.1934 192.958 15.8487H201.923L198.39 21.9677V21.9687ZM192.55 13.8487C192.407 12.446 192.563 11.0288 193.008 9.69094C193.453 8.35306 194.177 7.12492 195.133 6.0877L199.612 13.8487H192.55ZM196.659 4.7317C198.359 3.50459 200.403 2.8456 202.5 2.8487C203.246 2.8487 203.973 2.9307 204.673 3.0857L200.19 10.8487L196.659 4.7317V4.7317ZM206.61 3.7287C207.894 4.30959 209.042 5.15489 209.978 6.20943C210.914 7.26397 211.617 8.50404 212.042 9.8487H203.077L206.61 3.7297V3.7287ZM212.45 11.8487C212.593 13.2515 212.436 14.6686 211.991 16.0065C211.546 17.3443 210.822 18.5725 209.867 19.6097L205.388 11.8487H212.452H212.45Z" fill="#AEB6DA"/>
<path d="M200.327 62.6117L204.81 54.8487L208.342 60.9657C206.641 62.193 204.597 62.852 202.5 62.8487C201.754 62.8487 201.027 62.7667 200.327 62.6117ZM198.39 61.9687C197.105 61.3878 195.957 60.5425 195.021 59.488C194.085 58.4334 193.382 57.1934 192.958 55.8487H201.923L198.39 61.9677V61.9687ZM192.55 53.8487C192.407 52.446 192.563 51.0288 193.008 49.6909C193.453 48.3531 194.177 47.1249 195.133 46.0877L199.612 53.8487H192.55ZM196.659 44.7317C198.359 43.5046 200.403 42.8456 202.5 42.8487C203.246 42.8487 203.973 42.9307 204.673 43.0857L200.19 50.8487L196.659 44.7317V44.7317ZM206.61 43.7287C207.894 44.3096 209.042 45.1549 209.978 46.2094C210.914 47.264 211.617 48.504 212.042 49.8487H203.077L206.61 43.7297V43.7287ZM212.45 51.8487C212.593 53.2515 212.436 54.6686 211.991 56.0065C211.546 57.3443 210.822 58.5725 209.867 59.6097L205.388 51.8487H212.452H212.45Z" fill="white"/>
<mask id="path-4-inside-1_1_146" fill="white">
<rect x="0.154785" y="2.96063" width="8.58972" height="10.6872" rx="1"/>
</mask>
<rect x="0.154785" y="2.96063" width="8.58972" height="10.6872" rx="1" stroke="#AEB6DA" stroke-width="3" mask="url(#path-4-inside-1_1_146)"/>
<mask id="path-5-inside-2_1_146" fill="white">
<rect x="11.2914" y="12.0497" width="8.58972" height="10.6872" rx="1"/>
</mask>
<rect x="11.2914" y="12.0497" width="8.58972" height="10.6872" rx="1" stroke="#AEB6DA" stroke-width="3" mask="url(#path-5-inside-2_1_146)"/>
<mask id="path-6-inside-3_1_146" fill="white">
<rect x="0.154785" y="16.1947" width="8.58972" height="6.54212" rx="1"/>
</mask>
<rect x="0.154785" y="16.1947" width="8.58972" height="6.54212" rx="1" fill="#AEB6DA" stroke="#AEB6DA" stroke-width="3" mask="url(#path-6-inside-3_1_146)"/>
<mask id="path-7-inside-4_1_146" fill="white">
<rect x="11.3121" y="2.9606" width="8.58972" height="6.54212" rx="1"/>
</mask>
<rect x="11.3121" y="2.9606" width="8.58972" height="6.54212" rx="1" stroke="#AEB6DA" stroke-width="3" mask="url(#path-7-inside-4_1_146)"/>
<path d="M96.9546 16.0907V9.81468H98.0196V16.0907H96.9546ZM94.3491 13.4852V12.4202H100.625V13.4852H94.3491Z" fill="#AEB6DA"/>
<path fill-rule="evenodd" clip-rule="evenodd" d="M80.5675 12.7816L84.0033 16.2174L87.4392 12.7816L84.0033 9.34579L80.5675 12.7816ZM78.9896 11.9927C78.5539 12.4284 78.5539 13.1348 78.9896 13.5706L83.2144 17.7953C83.6501 18.231 84.3566 18.231 84.7923 17.7953L89.017 13.5706C89.4528 13.1348 89.4528 12.4284 89.017 11.9927L84.7923 7.76791C84.3566 7.33219 83.6501 7.33219 83.2144 7.76791L78.9896 11.9927Z" fill="#AEB6DA"/>
<path d="M85.7155 20.2963C85.2797 19.8605 85.2797 19.1541 85.7155 18.7184L89.9402 14.4936C90.3759 14.0579 91.0824 14.0579 91.5181 14.4936L95.7429 18.7184C96.1786 19.1541 96.1786 19.8605 95.7429 20.2963L91.5181 24.521C91.0824 24.9568 90.3759 24.9568 89.9402 24.521L85.7155 20.2963Z" fill="#AEB6DA"/>
<path fill-rule="evenodd" clip-rule="evenodd" d="M87.2933 19.5073L90.7292 22.9431L94.165 19.5073L90.7292 16.0715L87.2933 19.5073ZM85.7155 18.7184C85.2797 19.1541 85.2797 19.8605 85.7155 20.2963L89.9402 24.521C90.3759 24.9568 91.0824 24.9568 91.5181 24.521L95.7429 20.2963C96.1786 19.8605 96.1786 19.1541 95.7429 18.7184L91.5181 14.4936C91.0824 14.0579 90.3759 14.0579 89.9402 14.4936L85.7155 18.7184Z" fill="#AEB6DA"/>
<path fill-rule="evenodd" clip-rule="evenodd" d="M87.1591 6.19006L90.5949 9.62589L94.0307 6.19006L90.5949 2.75424L87.1591 6.19006ZM85.5812 5.40112C85.1455 5.83684 85.1455 6.54328 85.5812 6.979L89.8059 11.2038C90.2417 11.6395 90.9481 11.6395 91.3838 11.2038L95.6086 6.979C96.0443 6.54328 96.0443 5.83684 95.6086 5.40112L91.3838 1.17636C90.9481 0.740637 90.2417 0.740637 89.8059 1.17636L85.5812 5.40112Z" fill="#AEB6DA"/>
<path d="M134.973 7.90595V23.2123C134.973 23.3503 134.861 23.4623 134.723 23.4623H119.779C119.641 23.4623 119.529 23.3503 119.529 23.2123V7.90595C119.529 7.82415 119.569 7.74752 119.636 7.70078L127.108 2.49844C127.194 2.43866 127.308 2.43866 127.394 2.49844L134.866 7.70078C134.933 7.74752 134.973 7.82415 134.973 7.90595Z" stroke="#AEB6DA" stroke-width="1.5"/>
<line x1="123.604" y1="15.2961" x2="130.909" y2="15.2961" stroke="#AEB6DA" stroke-width="1.5" stroke-linecap="round"/>
<line x1="123.604" y1="19.2359" x2="130.909" y2="19.2359" stroke="#AEB6DA" stroke-width="1.5" stroke-linecap="round"/>
<circle cx="127.236" cy="10.1363" r="2.13074" fill="#AEB6DA"/>
<path d="M154.627 12.8487C154.627 12.1422 154.697 11.4535 154.831 10.7873C155.365 10.7316 155.884 10.5713 156.36 10.3134L156.002 9.65421L156.36 10.3134C157.024 9.953 157.575 9.416 157.953 8.76175C158.331 8.10751 158.521 7.3615 158.501 6.60619C158.487 6.06519 158.366 5.53452 158.148 5.04403C159.187 4.12549 160.401 3.42433 161.716 2.98198C162.031 3.41697 162.43 3.78747 162.891 4.07049C163.536 4.46579 164.277 4.67502 165.033 4.67502C165.789 4.67502 166.531 4.46579 167.175 4.07049C167.637 3.78747 168.036 3.41697 168.351 2.98198C169.666 3.42431 170.879 4.12541 171.919 5.04387C171.7 5.53451 171.579 6.06541 171.565 6.60666C171.545 7.36231 171.735 8.10869 172.113 8.76321C172.491 9.41773 173.043 9.95489 173.707 10.3152C174.183 10.5731 174.703 10.7332 175.237 10.7888C175.37 11.4541 175.441 12.1425 175.441 12.8487C175.441 13.5551 175.37 14.2437 175.237 14.9099C174.703 14.9655 174.183 15.1256 173.708 15.3834C173.043 15.7437 172.492 16.2807 172.114 16.935C171.736 17.5893 171.546 18.3354 171.565 19.0909C171.579 19.632 171.7 20.1628 171.919 20.6534C170.879 21.5719 169.666 22.2731 168.351 22.7154C168.036 22.2804 167.637 21.9099 167.175 21.6269C166.531 21.2316 165.789 21.0224 165.033 21.0224C164.277 21.0224 163.536 21.2316 162.891 21.6269C162.43 21.9099 162.031 22.2804 161.716 22.7154C160.401 22.2731 159.187 21.572 158.148 20.6535C158.367 20.1629 158.488 19.632 158.502 19.0907C158.522 18.3351 158.332 17.5887 157.954 16.9342C157.576 16.2797 157.024 15.7425 156.359 15.3822L156.002 16.0415L156.359 15.3822C155.884 15.1244 155.364 14.9642 154.83 14.9087C154.697 14.2439 154.627 13.5555 154.627 12.8487Z" stroke="#AEB6DA" stroke-width="1.5"/>
<circle cx="165.034" cy="12.4569" r="2.54063" fill="#AEB6DA"/>
<mask id="path-19-inside-5_1_146" fill="white">
<rect x="38.0557" y="0.230591" width="18.6438" height="21.889" rx="1"/>
</mask>
<rect x="38.0557" y="0.230591" width="18.6438" height="21.889" rx="1" stroke="#AEB6DA" stroke-width="3" mask="url(#path-19-inside-5_1_146)"/>
<path d="M42.0055 10.0944H52.8028" stroke="#AEB6DA" stroke-width="1.5" stroke-linecap="round"/>
<path d="M42.0055 13.2335H52.8028" stroke="#AEB6DA" stroke-width="1.5" stroke-linecap="round"/>
<path d="M42.0055 16.3725L49.514 16.3725" stroke="#AEB6DA" stroke-width="1.5" stroke-linecap="round"/>
<rect x="41.4028" y="3.58017" width="7.34453" height="3.89307" rx="1" fill="#AEB6DA"/>
<path fill-rule="evenodd" clip-rule="evenodd" d="M41.4028 21.4224V24.3511C41.4028 24.9673 41.9024 25.4668 42.5186 25.4668H58.9309C59.5471 25.4668 60.0466 24.9673 60.0466 24.3511V4.69352C60.0466 4.07732 59.5471 3.57779 58.9309 3.57779H56.2524V5.25139H58.373V23.7932H43.0764V21.4224H41.4028Z" fill="#AEB6DA"/>
<mask id="path-25-inside-6_1_146" fill="white">
<rect x="0.154785" y="42.9606" width="8.58972" height="10.6872" rx="1"/>
</mask>
<rect x="0.154785" y="42.9606" width="8.58972" height="10.6872" rx="1" stroke="white" stroke-width="3" mask="url(#path-25-inside-6_1_146)"/>
<mask id="path-26-inside-7_1_146" fill="white">
<rect x="11.2914" y="52.0497" width="8.58972" height="10.6872" rx="1"/>
</mask>
<rect x="11.2914" y="52.0497" width="8.58972" height="10.6872" rx="1" stroke="white" stroke-width="3" mask="url(#path-26-inside-7_1_146)"/>
<mask id="path-27-inside-8_1_146" fill="white">
<rect x="0.154785" y="56.1947" width="8.58972" height="6.54212" rx="1"/>
</mask>
<rect x="0.154785" y="56.1947" width="8.58972" height="6.54212" rx="1" fill="white" stroke="white" stroke-width="3" mask="url(#path-27-inside-8_1_146)"/>
<mask id="path-28-inside-9_1_146" fill="white">
<rect x="11.3121" y="42.9606" width="8.58972" height="6.54212" rx="1"/>
</mask>
<rect x="11.3121" y="42.9606" width="8.58972" height="6.54212" rx="1" stroke="white" stroke-width="3" mask="url(#path-28-inside-9_1_146)"/>
<path d="M96.9546 56.0907V49.8147H98.0196V56.0907H96.9546ZM94.3491 53.4852V52.4202H100.625V53.4852H94.3491Z" fill="white"/>
<path fill-rule="evenodd" clip-rule="evenodd" d="M80.5675 52.7816L84.0033 56.2174L87.4392 52.7816L84.0033 49.3458L80.5675 52.7816ZM78.9896 51.9927C78.5539 52.4284 78.5539 53.1348 78.9896 53.5706L83.2144 57.7953C83.6501 58.231 84.3566 58.231 84.7923 57.7953L89.017 53.5706C89.4528 53.1348 89.4528 52.4284 89.017 51.9927L84.7923 47.7679C84.3566 47.3322 83.6501 47.3322 83.2144 47.7679L78.9896 51.9927Z" fill="white"/>
<path d="M85.7155 60.2963C85.2797 59.8605 85.2797 59.1541 85.7155 58.7184L89.9402 54.4936C90.3759 54.0579 91.0824 54.0579 91.5181 54.4936L95.7429 58.7184C96.1786 59.1541 96.1786 59.8605 95.7429 60.2963L91.5181 64.521C91.0824 64.9568 90.3759 64.9568 89.9402 64.521L85.7155 60.2963Z" fill="white"/>
<path fill-rule="evenodd" clip-rule="evenodd" d="M87.2933 59.5073L90.7292 62.9431L94.165 59.5073L90.7292 56.0715L87.2933 59.5073ZM85.7155 58.7184C85.2797 59.1541 85.2797 59.8605 85.7155 60.2963L89.9402 64.521C90.3759 64.9568 91.0824 64.9568 91.5181 64.521L95.7429 60.2963C96.1786 59.8605 96.1786 59.1541 95.7429 58.7184L91.5181 54.4936C91.0824 54.0579 90.3759 54.0579 89.9402 54.4936L85.7155 58.7184Z" fill="white"/>
<path fill-rule="evenodd" clip-rule="evenodd" d="M87.1591 46.1901L90.5949 49.6259L94.0307 46.1901L90.5949 42.7542L87.1591 46.1901ZM85.5812 45.4011C85.1455 45.8368 85.1455 46.5433 85.5812 46.979L89.8059 51.2038C90.2417 51.6395 90.9481 51.6395 91.3838 51.2038L95.6086 46.979C96.0443 46.5433 96.0443 45.8368 95.6086 45.4011L91.3838 41.1764C90.9481 40.7406 90.2417 40.7406 89.8059 41.1764L85.5812 45.4011Z" fill="white"/>
<path d="M134.973 47.906V63.2123C134.973 63.3503 134.861 63.4623 134.723 63.4623H119.779C119.641 63.4623 119.529 63.3503 119.529 63.2123V47.906C119.529 47.8242 119.569 47.7475 119.636 47.7008L127.108 42.4984C127.194 42.4387 127.308 42.4387 127.394 42.4984L134.866 47.7008C134.933 47.7475 134.973 47.8242 134.973 47.906Z" stroke="white" stroke-width="1.5"/>
<line x1="123.604" y1="55.2961" x2="130.909" y2="55.2961" stroke="white" stroke-width="1.5" stroke-linecap="round"/>
<line x1="123.604" y1="59.2359" x2="130.909" y2="59.2359" stroke="white" stroke-width="1.5" stroke-linecap="round"/>
<circle cx="127.236" cy="50.1363" r="2.13074" fill="white"/>
<path d="M154.627 52.8487C154.627 52.1422 154.697 51.4535 154.831 50.7873C155.365 50.7316 155.884 50.5713 156.36 50.3134L156.002 49.6542L156.36 50.3134C157.024 49.953 157.575 49.416 157.953 48.7618C158.331 48.1075 158.521 47.3615 158.501 46.6062C158.487 46.0652 158.366 45.5345 158.148 45.044C159.187 44.1255 160.401 43.4243 161.716 42.982C162.031 43.417 162.43 43.7875 162.891 44.0705C163.536 44.4658 164.277 44.675 165.033 44.675C165.789 44.675 166.531 44.4658 167.175 44.0705C167.637 43.7875 168.036 43.417 168.351 42.982C169.666 43.4243 170.879 44.1254 171.919 45.0439C171.7 45.5345 171.579 46.0654 171.565 46.6067C171.545 47.3623 171.735 48.1087 172.113 48.7632C172.491 49.4177 173.043 49.9549 173.707 50.3152C174.183 50.5731 174.703 50.7332 175.237 50.7888C175.37 51.4541 175.441 52.1425 175.441 52.8487C175.441 53.5551 175.37 54.2437 175.237 54.9099C174.703 54.9655 174.183 55.1256 173.708 55.3834C173.043 55.7437 172.492 56.2807 172.114 56.935C171.736 57.5893 171.546 58.3354 171.565 59.0909C171.579 59.632 171.7 60.1628 171.919 60.6534C170.879 61.5719 169.666 62.2731 168.351 62.7154C168.036 62.2804 167.637 61.9099 167.175 61.6269C166.531 61.2316 165.789 61.0224 165.033 61.0224C164.277 61.0224 163.536 61.2316 162.891 61.6269C162.43 61.9099 162.031 62.2804 161.716 62.7154C160.401 62.2731 159.187 61.572 158.148 60.6535C158.367 60.1629 158.488 59.632 158.502 59.0907C158.522 58.3351 158.332 57.5887 157.954 56.9342C157.576 56.2797 157.024 55.7425 156.359 55.3822L156.002 56.0415L156.359 55.3822C155.884 55.1244 155.364 54.9642 154.83 54.9087C154.697 54.2439 154.627 53.5555 154.627 52.8487Z" stroke="white" stroke-width="1.5"/>
<circle cx="165.034" cy="52.4569" r="2.54063" fill="white"/>
<mask id="path-40-inside-10_1_146" fill="white">
<rect x="38.0557" y="40.2306" width="18.6438" height="21.889" rx="1"/>
</mask>
<rect x="38.0557" y="40.2306" width="18.6438" height="21.889" rx="1" stroke="white" stroke-width="3" mask="url(#path-40-inside-10_1_146)"/>
<path d="M42.0055 50.0944H52.8028" stroke="white" stroke-width="1.5" stroke-linecap="round"/>
<path d="M42.0055 53.2335H52.8028" stroke="white" stroke-width="1.5" stroke-linecap="round"/>
<path d="M42.0055 56.3725L49.514 56.3725" stroke="white" stroke-width="1.5" stroke-linecap="round"/>
<rect x="41.4028" y="43.5802" width="7.34453" height="3.89307" rx="1" fill="white"/>
<path fill-rule="evenodd" clip-rule="evenodd" d="M41.4028 61.4224V64.3511C41.4028 64.9673 41.9024 65.4668 42.5186 65.4668H58.9309C59.5471 65.4668 60.0466 64.9673 60.0466 64.3511V44.6935C60.0466 44.0773 59.5471 43.5778 58.9309 43.5778H56.2524V45.2514H58.373V63.7932H43.0764V61.4224H41.4028Z" fill="white"/>
<path d="M15.1789 98.2025H4.87765C4.68251 98.2025 4.49535 98.1251 4.35736 97.987C4.21938 97.8491 4.14185 97.6619 4.14185 97.4667V90.8445H1.93445L9.5331 83.9368C9.66857 83.8135 9.84513 83.7452 10.0282 83.7452C10.2114 83.7452 10.388 83.8135 10.5235 83.9368L18.1221 90.8445H15.9147V97.4667C15.9147 97.6619 15.8371 97.8491 15.6992 97.987C15.5612 98.1251 15.3741 98.2025 15.1789 98.2025ZM5.61346 96.731H14.4431V89.4884L10.0282 85.4754L5.61346 89.4884V96.731Z" fill="#2B2E3F"/>
<path d="M97.5129 88.2739V99.0676C97.5137 99.1858 97.4912 99.303 97.4468 99.4125C97.4023 99.522 97.3367 99.6217 97.2537 99.7058C97.1707 99.79 97.072 99.857 96.9631 99.903C96.8542 99.949 96.7374 99.9731 96.6192 99.9739H82.2066C81.9697 99.9739 81.7425 99.8798 81.5749 99.7124C81.4074 99.545 81.3131 99.3179 81.3129 99.0811V82.8667C81.3129 82.3834 81.7152 81.9739 82.2111 81.9739H91.2129V87.3739C91.2129 87.6126 91.3077 87.8415 91.4765 88.0103C91.6453 88.1791 91.8742 88.2739 92.1129 88.2739H97.5129ZM97.5129 86.4739H93.0129V81.9766L97.5129 86.4739ZM85.8129 86.4739V88.2739H88.5129V86.4739H85.8129ZM85.8129 90.0739V91.8739H93.0129V90.0739H85.8129ZM85.8129 93.6739V95.4739H93.0129V93.6739H85.8129Z" fill="#555ED3"/>
<path d="M131.236 81.9739H137.236V87.9739H135.236V83.9739H131.236V81.9739ZM117.236 81.9739H123.236V83.9739H119.236V87.9739H117.236V81.9739ZM135.236 97.9739V93.9739H137.236V99.9739H131.236V97.9739H135.236ZM119.236 97.9739H123.236V99.9739H117.236V93.9739H119.236V97.9739Z" fill="#555ED3"/>
<path d="M171.034 85.9739H175.034V87.9739H169.034V81.9739H171.034V85.9739ZM161.034 87.9739H155.034V85.9739H159.034V81.9739H161.034V87.9739ZM171.034 95.9739V99.9739H169.034V93.9739H175.034V95.9739H171.034ZM161.034 93.9739V99.9739H159.034V95.9739H155.034V93.9739H161.034Z" fill="#555ED3"/>
</svg>
