<svg width="250" height="173" viewBox="0 0 250 173" fill="none" xmlns="http://www.w3.org/2000/svg">
<path d="M58.3591 86.7433V98.7433C58.3591 99.0085 58.2538 99.2629 58.0662 99.4504C57.8787 99.6379 57.6243 99.7433 57.3591 99.7433H39.3591C39.0939 99.7433 38.8396 99.6379 38.652 99.4504C38.4645 99.2629 38.3591 99.0085 38.3591 98.7433V85.7433H57.3591C57.6243 85.7433 57.8787 85.8486 58.0662 86.0362C58.2538 86.2237 58.3591 86.4781 58.3591 86.7433ZM48.7731 83.7433H38.3591V82.7433C38.3591 82.4781 38.4645 82.2237 38.652 82.0362C38.8396 81.8486 39.0939 81.7433 39.3591 81.7433H46.7731L48.7731 83.7433Z" fill="#555ED3"/>
<path d="M200.172 22.3811L204.655 14.6181L208.187 20.7351C206.486 21.9624 204.442 22.6214 202.345 22.6181C201.599 22.6181 200.872 22.5361 200.172 22.3811ZM198.235 21.7381C196.95 21.1572 195.802 20.3119 194.866 19.2574C193.93 18.2029 193.227 16.9628 192.803 15.6181H201.768L198.235 21.7371V21.7381ZM192.395 13.6181C192.252 12.2154 192.408 10.7982 192.853 9.46035C193.299 8.12247 194.023 6.89433 194.978 5.85711L199.457 13.6181H192.395ZM196.504 4.50111C198.204 3.27399 200.248 2.615 202.345 2.61811C203.091 2.61811 203.818 2.70011 204.518 2.85511L200.035 10.6181L196.504 4.50111ZM206.455 3.49811C207.74 4.079 208.887 4.9243 209.823 5.97884C210.759 7.03338 211.463 8.27345 211.887 9.61811H202.922L206.455 3.49911V3.49811ZM212.295 11.6181C212.438 13.0209 212.282 14.438 211.836 15.7759C211.391 17.1138 210.667 18.3419 209.712 19.3791L205.233 11.6181H212.297H212.295Z" fill="#AEB6DA"/>
<path d="M200.172 62.3811L204.655 54.6181L208.187 60.7351C206.486 61.9624 204.442 62.6214 202.345 62.6181C201.599 62.6181 200.872 62.5361 200.172 62.3811ZM198.235 61.7381C196.95 61.1572 195.802 60.3119 194.866 59.2574C193.93 58.2029 193.227 56.9628 192.803 55.6181H201.768L198.235 61.7371V61.7381ZM192.395 53.6181C192.252 52.2154 192.408 50.7982 192.853 49.4603C193.299 48.1225 194.023 46.8943 194.978 45.8571L199.457 53.6181H192.395ZM196.504 44.5011C198.204 43.274 200.248 42.615 202.345 42.6181C203.091 42.6181 203.818 42.7001 204.518 42.8551L200.035 50.6181L196.504 44.5011ZM206.455 43.4981C207.74 44.079 208.887 44.9243 209.823 45.9788C210.759 47.0334 211.463 48.2735 211.887 49.6181H202.922L206.455 43.4991V43.4981ZM212.295 51.6181C212.438 53.0209 212.282 54.438 211.836 55.7759C211.391 57.1138 210.667 58.3419 209.712 59.3791L205.233 51.6181H212.297H212.295Z" fill="white"/>
<mask id="path-4-inside-1_63_70" fill="white">
<rect y="2.73004" width="8.58972" height="10.6872" rx="1"/>
</mask>
<rect y="2.73004" width="8.58972" height="10.6872" rx="1" stroke="#AEB6DA" stroke-width="3" mask="url(#path-4-inside-1_63_70)"/>
<mask id="path-5-inside-2_63_70" fill="white">
<rect x="11.1366" y="11.8191" width="8.58972" height="10.6872" rx="1"/>
</mask>
<rect x="11.1366" y="11.8191" width="8.58972" height="10.6872" rx="1" stroke="#AEB6DA" stroke-width="3" mask="url(#path-5-inside-2_63_70)"/>
<mask id="path-6-inside-3_63_70" fill="white">
<rect y="15.9641" width="8.58972" height="6.54212" rx="1"/>
</mask>
<rect y="15.9641" width="8.58972" height="6.54212" rx="1" fill="#AEB6DA" stroke="#AEB6DA" stroke-width="3" mask="url(#path-6-inside-3_63_70)"/>
<mask id="path-7-inside-4_63_70" fill="white">
<rect x="11.1573" y="2.73001" width="8.58972" height="6.54212" rx="1"/>
</mask>
<rect x="11.1573" y="2.73001" width="8.58972" height="6.54212" rx="1" stroke="#AEB6DA" stroke-width="3" mask="url(#path-7-inside-4_63_70)"/>
<path d="M119.374 7.67536C119.374 7.59356 119.414 7.51693 119.481 7.47019L126.953 2.26785C127.039 2.20807 127.153 2.20807 127.239 2.26785L134.711 7.47019C134.778 7.51693 134.818 7.59356 134.818 7.67536V22.9817C134.818 23.1198 134.706 23.2317 134.568 23.2317H119.624C119.486 23.2317 119.374 23.1198 119.374 22.9817V7.67536Z" stroke="#AEB6DA" stroke-width="1.5"/>
<line x1="123.45" y1="15.0655" x2="130.754" y2="15.0655" stroke="#AEB6DA" stroke-width="1.5" stroke-linecap="round"/>
<line x1="123.45" y1="19.0053" x2="130.754" y2="19.0053" stroke="#AEB6DA" stroke-width="1.5" stroke-linecap="round"/>
<circle cx="127.082" cy="9.90574" r="2.13074" fill="#AEB6DA"/>
<path d="M154.472 12.6181C154.472 11.9116 154.543 11.223 154.676 10.5567C155.21 10.501 155.73 10.3407 156.205 10.0828L155.847 9.42362L156.205 10.0828C156.869 9.72241 157.42 9.18541 157.798 8.53116C158.176 7.87692 158.366 7.1309 158.346 6.3756C158.332 5.8346 158.211 5.30393 157.993 4.81344C159.033 3.8949 160.246 3.19374 161.561 2.75139C161.876 3.18638 162.275 3.55688 162.736 3.8399C163.381 4.2352 164.122 4.44443 164.878 4.44443C165.635 4.44443 166.376 4.2352 167.021 3.8399C167.482 3.55688 167.881 3.18637 168.196 2.75139C169.511 3.19371 170.724 3.89482 171.764 4.81328C171.545 5.30392 171.424 5.83481 171.41 6.37607C171.39 7.13172 171.58 7.8781 171.958 8.53262C172.336 9.18714 172.888 9.72429 173.552 10.0846C174.028 10.3425 174.548 10.5027 175.082 10.5582C175.215 11.2235 175.286 11.9119 175.286 12.6181C175.286 13.3245 175.215 14.0131 175.082 14.6793C174.548 14.7349 174.028 14.895 173.553 15.1529C172.889 15.5131 172.337 16.0501 171.959 16.7044C171.581 17.3587 171.391 18.1048 171.411 18.8603C171.425 19.4014 171.546 19.9322 171.764 20.4228C170.724 21.3413 169.511 22.0425 168.196 22.4848C167.881 22.0498 167.482 21.6793 167.021 21.3963C166.376 21.001 165.635 20.7918 164.878 20.7918C164.122 20.7918 163.381 21.001 162.736 21.3963C162.275 21.6793 161.876 22.0498 161.561 22.4848C160.246 22.0425 159.033 21.3414 157.993 20.4229C158.212 19.9323 158.333 19.4014 158.347 18.8601C158.367 18.1045 158.177 17.3581 157.799 16.7036C157.421 16.0491 156.869 15.5119 156.205 15.1516L155.847 15.8109L156.205 15.1516C155.729 14.8938 155.209 14.7337 154.676 14.6781C154.543 14.0133 154.472 13.3249 154.472 12.6181Z" stroke="#AEB6DA" stroke-width="1.5"/>
<circle cx="164.879" cy="12.2263" r="2.54063" fill="#AEB6DA"/>
<mask id="path-14-inside-5_63_70" fill="white">
<rect x="37.9009" width="18.6438" height="21.889" rx="1"/>
</mask>
<rect x="37.9009" width="18.6438" height="21.889" rx="1" stroke="#AEB6DA" stroke-width="3" mask="url(#path-14-inside-5_63_70)"/>
<path d="M41.8507 9.86377H52.6481" stroke="#AEB6DA" stroke-width="1.5" stroke-linecap="round"/>
<path d="M41.8507 13.0029H52.6481" stroke="#AEB6DA" stroke-width="1.5" stroke-linecap="round"/>
<path d="M41.8507 16.1419L49.3592 16.1419" stroke="#AEB6DA" stroke-width="1.5" stroke-linecap="round"/>
<rect x="41.248" y="3.34958" width="7.34453" height="3.89307" rx="1" fill="#AEB6DA"/>
<path fill-rule="evenodd" clip-rule="evenodd" d="M41.248 21.1918V24.1205C41.248 24.7367 41.7476 25.2362 42.3638 25.2362H58.7761C59.3923 25.2362 59.8918 24.7367 59.8918 24.1205V4.46293C59.8918 3.84673 59.3923 3.3472 58.7761 3.3472H56.0976V5.0208H58.2182V23.5626H42.9216V21.1918H41.248Z" fill="#AEB6DA"/>
<mask id="path-20-inside-6_63_70" fill="white">
<rect y="42.73" width="8.58972" height="10.6872" rx="1"/>
</mask>
<rect y="42.73" width="8.58972" height="10.6872" rx="1" stroke="white" stroke-width="3" mask="url(#path-20-inside-6_63_70)"/>
<mask id="path-21-inside-7_63_70" fill="white">
<rect x="11.1366" y="51.8191" width="8.58972" height="10.6872" rx="1"/>
</mask>
<rect x="11.1366" y="51.8191" width="8.58972" height="10.6872" rx="1" stroke="white" stroke-width="3" mask="url(#path-21-inside-7_63_70)"/>
<mask id="path-22-inside-8_63_70" fill="white">
<rect y="55.9641" width="8.58972" height="6.54212" rx="1"/>
</mask>
<rect y="55.9641" width="8.58972" height="6.54212" rx="1" fill="white" stroke="white" stroke-width="3" mask="url(#path-22-inside-8_63_70)"/>
<mask id="path-23-inside-9_63_70" fill="white">
<rect x="11.1573" y="42.73" width="8.58972" height="6.54212" rx="1"/>
</mask>
<rect x="11.1573" y="42.73" width="8.58972" height="6.54212" rx="1" stroke="white" stroke-width="3" mask="url(#path-23-inside-9_63_70)"/>
<path d="M119.374 47.6754C119.374 47.5936 119.414 47.5169 119.481 47.4702L126.953 42.2678C127.039 42.2081 127.153 42.2081 127.239 42.2678L134.711 47.4702C134.778 47.5169 134.818 47.5936 134.818 47.6754V62.9817C134.818 63.1198 134.706 63.2317 134.568 63.2317H119.624C119.486 63.2317 119.374 63.1198 119.374 62.9817V47.6754Z" stroke="white" stroke-width="1.5"/>
<line x1="123.45" y1="55.0655" x2="130.754" y2="55.0655" stroke="white" stroke-width="1.5" stroke-linecap="round"/>
<line x1="123.45" y1="59.0053" x2="130.754" y2="59.0053" stroke="white" stroke-width="1.5" stroke-linecap="round"/>
<circle cx="127.082" cy="49.9057" r="2.13074" fill="white"/>
<path d="M154.472 52.6181C154.472 51.9116 154.543 51.223 154.676 50.5567C155.21 50.501 155.73 50.3407 156.205 50.0828L155.847 49.4236L156.205 50.0828C156.869 49.7224 157.42 49.1854 157.798 48.5312C158.176 47.8769 158.366 47.1309 158.346 46.3756C158.332 45.8346 158.211 45.3039 157.993 44.8134C159.033 43.8949 160.246 43.1937 161.561 42.7514C161.876 43.1864 162.275 43.5569 162.736 43.8399C163.381 44.2352 164.122 44.4444 164.878 44.4444C165.635 44.4444 166.376 44.2352 167.021 43.8399C167.482 43.5569 167.881 43.1864 168.196 42.7514C169.511 43.1937 170.724 43.8948 171.764 44.8133C171.545 45.3039 171.424 45.8348 171.41 46.3761C171.39 47.1317 171.58 47.8781 171.958 48.5326C172.336 49.1871 172.888 49.7243 173.552 50.0846C174.028 50.3425 174.548 50.5027 175.082 50.5582C175.215 51.2235 175.286 51.9119 175.286 52.6181C175.286 53.3245 175.215 54.0131 175.082 54.6793C174.548 54.7349 174.028 54.895 173.553 55.1529C172.889 55.5131 172.337 56.0501 171.959 56.7044C171.581 57.3587 171.391 58.1048 171.411 58.8603C171.425 59.4014 171.546 59.9322 171.764 60.4228C170.724 61.3413 169.511 62.0425 168.196 62.4848C167.881 62.0498 167.482 61.6793 167.021 61.3963C166.376 61.001 165.635 60.7918 164.878 60.7918C164.122 60.7918 163.381 61.001 162.736 61.3963C162.275 61.6793 161.876 62.0498 161.561 62.4848C160.246 62.0425 159.033 61.3414 157.993 60.4229C158.212 59.9323 158.333 59.4014 158.347 58.8601C158.367 58.1045 158.177 57.3581 157.799 56.7036C157.421 56.0491 156.869 55.5119 156.205 55.1516L155.847 55.8109L156.205 55.1516C155.729 54.8938 155.209 54.7337 154.676 54.6781C154.543 54.0133 154.472 53.3249 154.472 52.6181Z" stroke="white" stroke-width="1.5"/>
<circle cx="164.879" cy="52.2263" r="2.54063" fill="white"/>
<mask id="path-30-inside-10_63_70" fill="white">
<rect x="37.9009" y="40" width="18.6438" height="21.889" rx="1"/>
</mask>
<rect x="37.9009" y="40" width="18.6438" height="21.889" rx="1" stroke="white" stroke-width="3" mask="url(#path-30-inside-10_63_70)"/>
<path d="M41.8507 49.8638H52.6481" stroke="white" stroke-width="1.5" stroke-linecap="round"/>
<path d="M41.8507 53.0029H52.6481" stroke="white" stroke-width="1.5" stroke-linecap="round"/>
<path d="M41.8507 56.1419L49.3592 56.1419" stroke="white" stroke-width="1.5" stroke-linecap="round"/>
<rect x="41.248" y="43.3496" width="7.34453" height="3.89307" rx="1" fill="white"/>
<path fill-rule="evenodd" clip-rule="evenodd" d="M41.248 61.1918V64.1205C41.248 64.7367 41.7476 65.2362 42.3638 65.2362H58.7761C59.3923 65.2362 59.8918 64.7367 59.8918 64.1205V44.4629C59.8918 43.8467 59.3923 43.3472 58.7761 43.3472H56.0976V45.0208H58.2182V63.5626H42.9216V61.1918H41.248Z" fill="white"/>
<mask id="path-36-inside-11_63_70" fill="white">
<rect x="230.845" y="5.76941" width="19" height="5" rx="1"/>
</mask>
<rect x="230.845" y="5.76941" width="19" height="5" rx="1" stroke="#AEB6DA" stroke-width="3" mask="url(#path-36-inside-11_63_70)"/>
<mask id="path-37-inside-12_63_70" fill="white">
<rect x="230.845" y="12.7694" width="19" height="5" rx="1"/>
</mask>
<rect x="230.845" y="12.7694" width="19" height="5" rx="1" stroke="#AEB6DA" stroke-width="3" mask="url(#path-37-inside-12_63_70)"/>
<path d="M231.845 2.76941L239.354 2.76948" stroke="#AEB6DA" stroke-width="1.5" stroke-linecap="round"/>
<rect x="230.845" y="19.7694" width="7" height="3" rx="1" fill="#AEB6DA"/>
<mask id="path-40-inside-13_63_70" fill="white">
<rect x="230.845" y="45.7694" width="19" height="5" rx="1"/>
</mask>
<rect x="230.845" y="45.7694" width="19" height="5" rx="1" stroke="white" stroke-width="3" mask="url(#path-40-inside-13_63_70)"/>
<mask id="path-41-inside-14_63_70" fill="white">
<rect x="230.845" y="52.7694" width="19" height="5" rx="1"/>
</mask>
<rect x="230.845" y="52.7694" width="19" height="5" rx="1" stroke="white" stroke-width="3" mask="url(#path-41-inside-14_63_70)"/>
<path d="M231.845 42.7694L239.354 42.7695" stroke="white" stroke-width="1.5" stroke-linecap="round"/>
<rect x="230.845" y="59.7694" width="7" height="3" rx="1" fill="white"/>
<path d="M15.0241 97.9719H4.72286C4.52772 97.9719 4.34057 97.8945 4.20258 97.7564C4.06459 97.6185 3.98706 97.4313 3.98706 97.2361V90.6139H1.77966L9.37832 83.7062C9.51378 83.583 9.69035 83.5146 9.87346 83.5146C10.0567 83.5146 10.2332 83.583 10.3687 83.7062L17.9673 90.6139H15.7599V97.2361C15.7599 97.4313 15.6824 97.6185 15.5444 97.7564C15.4064 97.8945 15.2193 97.9719 15.0241 97.9719ZM5.45867 96.5004H14.2883V89.2578L9.87346 85.2448L5.45867 89.2578V96.5004Z" fill="#2B2E3F"/>
<path d="M131.082 81.7433H137.082V87.7433H135.082V83.7433H131.082V81.7433ZM117.082 81.7433H123.082V83.7433H119.082V87.7433H117.082V81.7433ZM135.082 97.7433V93.7433H137.082V99.7433H131.082V97.7433H135.082ZM119.082 97.7433H123.082V99.7433H117.082V93.7433H119.082V97.7433Z" fill="#555ED3"/>
<path d="M170.879 85.7433H174.879V87.7433H168.879V81.7433H170.879V85.7433ZM160.879 87.7433H154.879V85.7433H158.879V81.7433H160.879V87.7433ZM170.879 95.7433V99.7433H168.879V93.7433H174.879V95.7433H170.879ZM160.879 93.7433V99.7433H158.879V95.7433H154.879V93.7433H160.879Z" fill="#555ED3"/>
<path d="M208.345 97.7433H209.345V85.5713L207.517 83.7433H206.345V87.7433H197.345V83.7433H195.345V97.7433H196.345V90.7433H208.345V97.7433ZM194.345 81.7433H208.345L211.052 84.4503C211.239 84.6378 211.345 84.8921 211.345 85.1573V98.7433C211.345 99.0085 211.239 99.2629 211.052 99.4504C210.864 99.6379 210.61 99.7433 210.345 99.7433H194.345C194.08 99.7433 193.825 99.6379 193.638 99.4504C193.45 99.2629 193.345 99.0085 193.345 98.7433V82.7433C193.345 82.4781 193.45 82.2237 193.638 82.0362C193.825 81.8486 194.08 81.7433 194.345 81.7433ZM198.345 92.7433V97.7433H206.345V92.7433H198.345Z" fill="white"/>
<path d="M94.8453 170.769H95.8453V158.597L94.0173 156.769H92.8453V160.769H83.8453V156.769H81.8453V170.769H82.8453V163.769H94.8453V170.769ZM80.8453 154.769H94.8453L97.5523 157.476C97.7399 157.664 97.8452 157.918 97.8453 158.183V171.769C97.8453 172.035 97.7399 172.289 97.5524 172.477C97.3649 172.664 97.1105 172.769 96.8453 172.769H80.8453C80.5801 172.769 80.3258 172.664 80.1382 172.477C79.9507 172.289 79.8453 172.035 79.8453 171.769V155.769C79.8453 155.504 79.9507 155.25 80.1382 155.062C80.3258 154.875 80.5801 154.769 80.8453 154.769ZM84.8453 165.769V170.769H92.8453V165.769H84.8453Z" fill="#02BE5A"/>
<path d="M9.36534 126.249V122.463H11.2587V126.249H15.0453V128.143H11.2587V131.929H9.36534V128.143H5.57867V126.249H9.36534ZM10.312 136.663C5.08356 136.663 0.845337 132.424 0.845337 127.196C0.845337 121.968 5.08356 117.729 10.312 117.729C15.5404 117.729 19.7787 121.968 19.7787 127.196C19.7787 132.424 15.5404 136.663 10.312 136.663ZM10.312 134.769C12.3205 134.769 14.2469 133.971 15.6672 132.551C17.0874 131.131 17.8853 129.204 17.8853 127.196C17.8853 125.187 17.0874 123.261 15.6672 121.841C14.2469 120.421 12.3205 119.623 10.312 119.623C8.30343 119.623 6.37713 120.421 4.95685 121.841C3.53657 123.261 2.73867 125.187 2.73867 127.196C2.73867 129.204 3.53657 131.131 4.95685 132.551C6.37713 133.971 8.30343 134.769 10.312 134.769Z" fill="white"/>
<path d="M49.2093 125.719L54.1593 120.769L55.5733 122.183L50.6233 127.133L55.5733 132.083L54.1593 133.497L49.2093 128.547L44.2593 133.497L42.8453 132.083L47.7953 127.133L42.8453 122.183L44.2593 120.769L49.2093 125.719Z" fill="#2B2E3F"/>
<path d="M96.7998 15.8601V9.58411H97.8648V15.8601H96.7998ZM94.1943 13.2546V12.1896H100.47V13.2546H94.1943Z" fill="#AEB6DA"/>
<path fill-rule="evenodd" clip-rule="evenodd" d="M80.4127 12.551L83.8485 15.9868L87.2844 12.551L83.8485 9.1152L80.4127 12.551ZM78.8348 11.7621C78.3991 12.1978 78.3991 12.9042 78.8348 13.34L83.0596 17.5647C83.4953 18.0005 84.2018 18.0005 84.6375 17.5647L88.8623 13.34C89.298 12.9042 89.298 12.1978 88.8623 11.7621L84.6375 7.53732C84.2018 7.1016 83.4953 7.1016 83.0596 7.53732L78.8348 11.7621Z" fill="#AEB6DA"/>
<path d="M85.5607 20.0657C85.1249 19.63 85.1249 18.9235 85.5607 18.4878L89.7854 14.263C90.2212 13.8273 90.9276 13.8273 91.3633 14.263L95.5881 18.4878C96.0238 18.9235 96.0238 19.63 95.5881 20.0657L91.3633 24.2904C90.9276 24.7262 90.2212 24.7262 89.7854 24.2904L85.5607 20.0657Z" fill="#AEB6DA"/>
<path fill-rule="evenodd" clip-rule="evenodd" d="M87.1386 19.2767L90.5744 22.7126L94.0102 19.2767L90.5744 15.8409L87.1386 19.2767ZM85.5607 18.4878C85.1249 18.9235 85.1249 19.63 85.5607 20.0657L89.7854 24.2904C90.2212 24.7262 90.9276 24.7262 91.3633 24.2904L95.5881 20.0657C96.0238 19.63 96.0238 18.9235 95.5881 18.4878L91.3633 14.263C90.9276 13.8273 90.2212 13.8273 89.7854 14.263L85.5607 18.4878Z" fill="#AEB6DA"/>
<path fill-rule="evenodd" clip-rule="evenodd" d="M87.0043 5.95947L90.4401 9.3953L93.8759 5.95947L90.4401 2.52365L87.0043 5.95947ZM85.4264 5.17053C84.9907 5.60625 84.9907 6.31269 85.4264 6.74841L89.6512 10.9732C90.0869 11.4089 90.7933 11.4089 91.229 10.9732L95.4538 6.74841C95.8895 6.31269 95.8895 5.60625 95.4538 5.17053L91.229 0.945766C90.7933 0.510046 90.0869 0.510046 89.6512 0.945766L85.4264 5.17053Z" fill="#AEB6DA"/>
<path d="M96.7998 55.8601V49.5841H97.8648V55.8601H96.7998ZM94.1943 53.2546V52.1896H100.47V53.2546H94.1943Z" fill="white"/>
<path fill-rule="evenodd" clip-rule="evenodd" d="M80.4127 52.551L83.8485 55.9868L87.2844 52.551L83.8485 49.1152L80.4127 52.551ZM78.8348 51.7621C78.3991 52.1978 78.3991 52.9042 78.8348 53.34L83.0596 57.5647C83.4953 58.0005 84.2018 58.0005 84.6375 57.5647L88.8623 53.34C89.298 52.9042 89.298 52.1978 88.8623 51.7621L84.6375 47.5373C84.2018 47.1016 83.4953 47.1016 83.0596 47.5373L78.8348 51.7621Z" fill="white"/>
<path d="M85.5607 60.0657C85.1249 59.63 85.1249 58.9235 85.5607 58.4878L89.7854 54.263C90.2212 53.8273 90.9276 53.8273 91.3633 54.263L95.5881 58.4878C96.0238 58.9235 96.0238 59.63 95.5881 60.0657L91.3633 64.2904C90.9276 64.7262 90.2212 64.7262 89.7854 64.2904L85.5607 60.0657Z" fill="white"/>
<path fill-rule="evenodd" clip-rule="evenodd" d="M87.1386 59.2767L90.5744 62.7126L94.0102 59.2767L90.5744 55.8409L87.1386 59.2767ZM85.5607 58.4878C85.1249 58.9235 85.1249 59.63 85.5607 60.0657L89.7854 64.2904C90.2212 64.7262 90.9276 64.7262 91.3633 64.2904L95.5881 60.0657C96.0238 59.63 96.0238 58.9235 95.5881 58.4878L91.3633 54.263C90.9276 53.8273 90.2212 53.8273 89.7854 54.263L85.5607 58.4878Z" fill="white"/>
<path fill-rule="evenodd" clip-rule="evenodd" d="M87.0043 45.9595L90.4401 49.3953L93.8759 45.9595L90.4401 42.5236L87.0043 45.9595ZM85.4264 45.1705C84.9907 45.6063 84.9907 46.3127 85.4264 46.7484L89.6512 50.9732C90.0869 51.4089 90.7933 51.4089 91.229 50.9732L95.4538 46.7484C95.8895 46.3127 95.8895 45.6063 95.4538 45.1705L91.229 40.9458C90.7933 40.51 90.0869 40.51 89.6512 40.9458L85.4264 45.1705Z" fill="white"/>
<path d="M97.3581 86.7694V98.837C97.3589 98.9552 97.3365 99.0724 97.292 99.1819C97.2475 99.2914 97.1819 99.3911 97.0989 99.4752C97.0159 99.5594 96.9172 99.6264 96.8083 99.6724C96.6994 99.7184 96.5826 99.7425 96.4644 99.7433H82.0518C81.8149 99.7433 81.5877 99.6493 81.4202 99.4818C81.2526 99.3144 81.1583 99.0874 81.1581 98.8505V82.6361C81.1581 82.1528 81.5604 81.7433 82.0563 81.7433L92.8453 81.7433L91.0581 87.1433C91.0581 87.382 91.1529 87.6109 91.3217 87.7797C91.4905 87.9485 91.7194 88.0433 91.9581 88.0433L97.3581 86.7694ZM97.3581 86.7694L89.3453 89.756L92.8444 81.746L97.3581 86.7694Z" fill="#AEB6DA"/>
<path d="M86.3052 122.178C85.9858 122.178 85.6795 122.051 85.4536 121.825C85.2277 121.6 85.1008 121.293 85.1008 120.974C85.1008 120.654 85.2277 120.348 85.4536 120.122C85.6795 119.896 85.9858 119.769 86.3052 119.769C86.6246 119.769 86.931 119.896 87.1568 120.122C87.3827 120.348 87.5096 120.654 87.5096 120.974C87.5096 121.293 87.3827 121.6 87.1568 121.825C86.931 122.051 86.6246 122.178 86.3052 122.178ZM86.3052 127.799C85.9858 127.799 85.6795 127.672 85.4536 127.446C85.2277 127.22 85.1008 126.914 85.1008 126.594C85.1008 126.275 85.2277 125.968 85.4536 125.743C85.6795 125.517 85.9858 125.39 86.3052 125.39C86.6246 125.39 86.931 125.517 87.1568 125.743C87.3827 125.968 87.5096 126.275 87.5096 126.594C87.5096 126.914 87.3827 127.22 87.1568 127.446C86.931 127.672 86.6246 127.799 86.3052 127.799ZM86.3052 133.339C85.9858 133.339 85.6795 133.212 85.4536 132.986C85.2277 132.76 85.1008 132.454 85.1008 132.134C85.1008 131.815 85.2277 131.509 85.4536 131.283C85.6795 131.057 85.9858 130.93 86.3052 130.93C86.6246 130.93 86.931 131.057 87.1568 131.283C87.3827 131.509 87.5096 131.815 87.5096 132.134C87.5096 132.454 87.3827 132.76 87.1568 132.986C86.931 133.212 86.6246 133.339 86.3052 133.339Z" fill="#888888"/>
<path d="M91.9472 122.178C91.6278 122.178 91.3214 122.051 91.0956 121.825C90.8697 121.6 90.7428 121.293 90.7428 120.974C90.7428 120.654 90.8697 120.348 91.0956 120.122C91.3214 119.896 91.6278 119.769 91.9472 119.769C92.2666 119.769 92.5729 119.896 92.7988 120.122C93.0247 120.348 93.1516 120.654 93.1516 120.974C93.1516 121.293 93.0247 121.6 92.7988 121.825C92.5729 122.051 92.2666 122.178 91.9472 122.178ZM91.9472 127.799C91.6278 127.799 91.3214 127.672 91.0956 127.446C90.8697 127.22 90.7428 126.914 90.7428 126.594C90.7428 126.275 90.8697 125.968 91.0956 125.743C91.3214 125.517 91.6278 125.39 91.9472 125.39C92.2666 125.39 92.5729 125.517 92.7988 125.743C93.0247 125.968 93.1516 126.275 93.1516 126.594C93.1516 126.914 93.0247 127.22 92.7988 127.446C92.5729 127.672 92.2666 127.799 91.9472 127.799ZM91.9472 133.339C91.6278 133.339 91.3214 133.212 91.0956 132.986C90.8697 132.76 90.7428 132.454 90.7428 132.134C90.7428 131.815 90.8697 131.509 91.0956 131.283C91.3214 131.057 91.6278 130.93 91.9472 130.93C92.2666 130.93 92.5729 131.057 92.7988 131.283C93.0247 131.509 93.1516 131.815 93.1516 132.134C93.1516 132.454 93.0247 132.76 92.7988 132.986C92.5729 133.212 92.2666 133.339 91.9472 133.339Z" fill="#888888"/>
<path d="M127.209 127.719L132.159 122.769L133.573 124.183L127.209 130.547L120.845 124.183L122.259 122.769L127.209 127.719Z" fill="#2B2E3F"/>
<path d="M160.845 119.769H171.946V121.477H160.845V119.769ZM160.845 125.747H171.946V127.454H160.845V125.747ZM160.845 131.724H171.946V133.432H160.845V131.724Z" fill="#AEB6DA"/>
<path d="M3.84534 156.769H16.8453V158.519H3.84534V156.769ZM3.84534 162.894H16.8453V164.644H3.84534V162.894ZM3.84534 169.019H16.8453V170.769H3.84534V169.019Z" fill="#2B2E3F"/>
<path d="M194.845 119.769H200.845V121.519H194.845V119.769ZM194.845 125.894H200.845V127.644H194.845V125.894ZM194.845 132.019H200.845V133.769H194.845V132.019Z" fill="#AEB6DA"/>
<path d="M202.845 119.769H208.845V121.519H202.845V119.769ZM202.845 125.894H208.845V127.644H202.845V125.894ZM202.845 132.019H208.845V133.769H202.845V132.019Z" fill="#AEB6DA"/>
<path d="M52.898 163.243L55.8453 170.769H54.4018L53.5973 168.717H50.8576L50.0544 170.769H48.6116L51.5583 163.243H52.898ZM47.2042 157.769V159.138H51.2233V160.506H49.9051C49.3883 162.095 48.5636 163.561 47.4802 164.817C47.9633 165.258 48.4874 165.649 49.045 165.985L48.5419 167.27C47.8221 166.853 47.149 166.358 46.5343 165.792C45.3377 166.898 43.9206 167.726 42.3806 168.219L42.0215 166.9C43.341 166.47 44.5569 165.761 45.5898 164.818C44.8253 163.934 44.1885 162.943 43.6988 161.875H45.1993C45.5727 162.579 46.0203 163.239 46.5343 163.843C47.3717 162.857 48.0317 161.728 48.4836 160.507L41.8453 160.506V159.138H45.8645V157.769H47.2042ZM52.2281 165.217L51.3928 167.348H53.0621L52.2281 165.217Z" fill="#2B2E3F"/>
<path d="M125.975 155C130.377 155 133.95 158.573 133.95 162.975C133.95 167.377 130.377 170.95 125.975 170.95C121.573 170.95 118 167.377 118 162.975C118 158.573 121.573 155 125.975 155ZM125.975 169.177C129.401 169.177 132.177 166.401 132.177 162.975C132.177 159.547 129.401 156.772 125.975 156.772C122.547 156.772 119.772 159.547 119.772 162.975C119.772 166.401 122.547 169.177 125.975 169.177ZM133.493 169.24L136 171.746L134.746 173L132.24 170.493L133.493 169.24V169.24Z" fill="#AEB6DA"/>
</svg>
