<svg width="177" height="67" viewBox="0 0 177 67" fill="none" xmlns="http://www.w3.org/2000/svg">
<mask id="path-1-inside-1_0_1" fill="white">
<rect x="0.720886" y="3.64587" width="8.58972" height="10.6872" rx="1"/>
</mask>
<rect x="0.720886" y="3.64587" width="8.58972" height="10.6872" rx="1" stroke="#AEB6DA" stroke-width="3" mask="url(#path-1-inside-1_0_1)"/>
<mask id="path-2-inside-2_0_1" fill="white">
<rect x="11.8575" y="12.7349" width="8.58972" height="10.6872" rx="1"/>
</mask>
<rect x="11.8575" y="12.7349" width="8.58972" height="10.6872" rx="1" stroke="#AEB6DA" stroke-width="3" mask="url(#path-2-inside-2_0_1)"/>
<mask id="path-3-inside-3_0_1" fill="white">
<rect x="0.720886" y="16.8799" width="8.58972" height="6.54212" rx="1"/>
</mask>
<rect x="0.720886" y="16.8799" width="8.58972" height="6.54212" rx="1" fill="#AEB6DA" stroke="#AEB6DA" stroke-width="3" mask="url(#path-3-inside-3_0_1)"/>
<mask id="path-4-inside-4_0_1" fill="white">
<rect x="11.8782" y="3.64587" width="8.58972" height="6.54212" rx="1"/>
</mask>
<rect x="11.8782" y="3.64587" width="8.58972" height="6.54212" rx="1" stroke="#AEB6DA" stroke-width="3" mask="url(#path-4-inside-4_0_1)"/>
<path d="M97.5206 16.7759V10.4999H98.5857V16.7759H97.5206ZM94.9152 14.1704V13.1054H101.191V14.1704H94.9152Z" fill="#AEB6DA"/>
<path fill-rule="evenodd" clip-rule="evenodd" d="M81.1335 13.4669L84.5694 16.9027L88.0052 13.4669L84.5694 10.031L81.1335 13.4669ZM79.5557 12.6779C79.1199 13.1136 79.1199 13.8201 79.5557 14.2558L83.7804 18.4806C84.2162 18.9163 84.9226 18.9163 85.3583 18.4806L89.5831 14.2558C90.0188 13.8201 90.0188 13.1136 89.5831 12.6779L85.3583 8.45315C84.9226 8.01743 84.2162 8.01743 83.7804 8.45315L79.5557 12.6779Z" fill="#AEB6DA"/>
<path d="M86.2815 20.9815C85.8458 20.5458 85.8458 19.8393 86.2815 19.4036L90.5063 15.1789C90.942 14.7431 91.6484 14.7431 92.0841 15.1789L96.3089 19.4036C96.7446 19.8393 96.7446 20.5458 96.3089 20.9815L92.0841 25.2063C91.6484 25.642 90.942 25.642 90.5063 25.2063L86.2815 20.9815Z" fill="#AEB6DA"/>
<path fill-rule="evenodd" clip-rule="evenodd" d="M87.8594 20.1926L91.2952 23.6284L94.731 20.1926L91.2952 16.7567L87.8594 20.1926ZM86.2815 19.4036C85.8458 19.8393 85.8458 20.5458 86.2815 20.9815L90.5063 25.2063C90.942 25.642 91.6484 25.642 92.0841 25.2063L96.3089 20.9815C96.7446 20.5458 96.7446 19.8393 96.3089 19.4036L92.0841 15.1789C91.6484 14.7431 90.942 14.7431 90.5063 15.1789L86.2815 19.4036Z" fill="#AEB6DA"/>
<path fill-rule="evenodd" clip-rule="evenodd" d="M87.7251 6.87531L91.1609 10.3111L94.5967 6.87531L91.1609 3.43948L87.7251 6.87531ZM86.1472 6.08636C85.7115 6.52208 85.7115 7.22853 86.1472 7.66425L90.372 11.889C90.8077 12.3247 91.5141 12.3247 91.9499 11.889L96.1746 7.66425C96.6104 7.22853 96.6104 6.52208 96.1746 6.08636L91.9499 1.8616C91.5141 1.42588 90.8077 1.42588 90.372 1.8616L86.1472 6.08636Z" fill="#AEB6DA"/>
<path d="M135.539 8.59119V23.8975C135.539 24.0356 135.427 24.1475 135.289 24.1475H120.345C120.207 24.1475 120.095 24.0356 120.095 23.8975V8.59119C120.095 8.50939 120.135 8.43277 120.202 8.38602L127.674 3.18368C127.76 3.12391 127.874 3.12391 127.96 3.18368L135.432 8.38602C135.499 8.43277 135.539 8.50939 135.539 8.59119Z" stroke="#AEB6DA" stroke-width="1.5"/>
<line x1="124.17" y1="15.9813" x2="131.475" y2="15.9813" stroke="#AEB6DA" stroke-width="1.5" stroke-linecap="round"/>
<line x1="124.17" y1="19.9211" x2="131.475" y2="19.9211" stroke="#AEB6DA" stroke-width="1.5" stroke-linecap="round"/>
<circle cx="127.802" cy="10.8215" r="2.13074" fill="#AEB6DA"/>
<path d="M155.193 13.5339C155.193 12.8275 155.264 12.1388 155.397 11.4726C155.931 11.4168 156.451 11.2565 156.926 10.9986L156.568 10.3395L156.926 10.9986C157.59 10.6382 158.141 10.1012 158.519 9.44699C158.897 8.79275 159.087 8.04674 159.067 7.29143C159.053 6.75043 158.932 6.21976 158.714 5.72927C159.753 4.81073 160.967 4.10957 162.282 3.66722C162.597 4.10221 162.996 4.47271 163.457 4.75573C164.102 5.15103 164.843 5.36027 165.599 5.36027C166.355 5.36027 167.097 5.15103 167.741 4.75573C168.203 4.47271 168.602 4.10221 168.917 3.66722C170.232 4.10955 171.445 4.81066 172.485 5.72912C172.266 6.21975 172.145 6.75065 172.131 7.2919C172.111 8.04755 172.301 8.79393 172.679 9.44845C173.057 10.103 173.609 10.6401 174.273 11.0005C174.749 11.2584 175.269 11.4185 175.803 11.474C175.936 12.1393 176.007 12.8277 176.007 13.5339C176.007 14.2403 175.936 14.929 175.803 15.5951C175.269 15.6507 174.749 15.8109 174.274 16.0687C173.61 16.429 173.058 16.966 172.68 17.6202C172.302 18.2745 172.112 19.0207 172.131 19.7761C172.145 20.3172 172.266 20.848 172.485 21.3386C171.445 22.2571 170.232 22.9583 168.917 23.4007C168.602 22.9657 168.203 22.5952 167.741 22.3121C167.097 21.9168 166.355 21.7076 165.599 21.7076C164.843 21.7076 164.102 21.9168 163.457 22.3121C162.996 22.5952 162.597 22.9657 162.282 23.4007C160.967 22.9583 159.754 22.2572 158.714 21.3388C158.933 20.8481 159.054 20.3172 159.068 19.776C159.088 19.0203 158.898 18.2739 158.52 17.6194C158.142 16.9649 157.59 16.4277 156.925 16.0674L156.568 16.7267L156.925 16.0674C156.45 15.8096 155.93 15.6495 155.396 15.5939C155.263 14.9292 155.193 14.2408 155.193 13.5339Z" stroke="#AEB6DA" stroke-width="1.5"/>
<circle cx="165.6" cy="13.1421" r="2.54063" fill="#AEB6DA"/>
<mask id="path-16-inside-5_0_1" fill="white">
<rect x="38.6218" y="0.915833" width="18.6438" height="21.889" rx="1"/>
</mask>
<rect x="38.6218" y="0.915833" width="18.6438" height="21.889" rx="1" stroke="#AEB6DA" stroke-width="3" mask="url(#path-16-inside-5_0_1)"/>
<path d="M42.5717 10.7796H53.3691" stroke="#AEB6DA" stroke-width="1.5" stroke-linecap="round"/>
<path d="M42.5717 13.9187H53.3691" stroke="#AEB6DA" stroke-width="1.5" stroke-linecap="round"/>
<path d="M42.5717 17.0577L50.0802 17.0578" stroke="#AEB6DA" stroke-width="1.5" stroke-linecap="round"/>
<rect x="41.969" y="4.26538" width="7.34453" height="3.89307" rx="1" fill="#AEB6DA"/>
<path fill-rule="evenodd" clip-rule="evenodd" d="M41.969 22.1076V25.0363C41.969 25.6525 42.4685 26.152 43.0847 26.152H59.497C60.1132 26.152 60.6128 25.6525 60.6128 25.0363V5.37873C60.6128 4.76253 60.1132 4.263 59.497 4.263H56.8185V5.9366H58.9392V24.4784H43.6426V22.1076H41.969Z" fill="#AEB6DA"/>
<mask id="path-22-inside-6_0_1" fill="white">
<rect x="0.720886" y="43.6459" width="8.58972" height="10.6872" rx="1"/>
</mask>
<rect x="0.720886" y="43.6459" width="8.58972" height="10.6872" rx="1" stroke="white" stroke-width="3" mask="url(#path-22-inside-6_0_1)"/>
<mask id="path-23-inside-7_0_1" fill="white">
<rect x="11.8575" y="52.7349" width="8.58972" height="10.6872" rx="1"/>
</mask>
<rect x="11.8575" y="52.7349" width="8.58972" height="10.6872" rx="1" stroke="white" stroke-width="3" mask="url(#path-23-inside-7_0_1)"/>
<mask id="path-24-inside-8_0_1" fill="white">
<rect x="0.720886" y="56.8799" width="8.58972" height="6.54212" rx="1"/>
</mask>
<rect x="0.720886" y="56.8799" width="8.58972" height="6.54212" rx="1" fill="white" stroke="white" stroke-width="3" mask="url(#path-24-inside-8_0_1)"/>
<mask id="path-25-inside-9_0_1" fill="white">
<rect x="11.8782" y="43.6459" width="8.58972" height="6.54212" rx="1"/>
</mask>
<rect x="11.8782" y="43.6459" width="8.58972" height="6.54212" rx="1" stroke="white" stroke-width="3" mask="url(#path-25-inside-9_0_1)"/>
<path d="M97.5206 56.7759V50.4999H98.5857V56.7759H97.5206ZM94.9152 54.1704V53.1054H101.191V54.1704H94.9152Z" fill="white"/>
<path fill-rule="evenodd" clip-rule="evenodd" d="M81.1335 53.4669L84.5694 56.9027L88.0052 53.4669L84.5694 50.031L81.1335 53.4669ZM79.5557 52.6779C79.1199 53.1136 79.1199 53.8201 79.5557 54.2558L83.7804 58.4806C84.2162 58.9163 84.9226 58.9163 85.3583 58.4806L89.5831 54.2558C90.0188 53.8201 90.0188 53.1136 89.5831 52.6779L85.3583 48.4532C84.9226 48.0174 84.2162 48.0174 83.7804 48.4532L79.5557 52.6779Z" fill="white"/>
<path d="M86.2815 60.9815C85.8458 60.5458 85.8458 59.8393 86.2815 59.4036L90.5063 55.1789C90.942 54.7431 91.6484 54.7431 92.0841 55.1789L96.3089 59.4036C96.7446 59.8393 96.7446 60.5458 96.3089 60.9815L92.0841 65.2063C91.6484 65.642 90.942 65.642 90.5063 65.2063L86.2815 60.9815Z" fill="white"/>
<path fill-rule="evenodd" clip-rule="evenodd" d="M87.8594 60.1926L91.2952 63.6284L94.731 60.1926L91.2952 56.7567L87.8594 60.1926ZM86.2815 59.4036C85.8458 59.8393 85.8458 60.5458 86.2815 60.9815L90.5063 65.2063C90.942 65.642 91.6484 65.642 92.0841 65.2063L96.3089 60.9815C96.7446 60.5458 96.7446 59.8393 96.3089 59.4036L92.0841 55.1789C91.6484 54.7431 90.942 54.7431 90.5063 55.1789L86.2815 59.4036Z" fill="white"/>
<path fill-rule="evenodd" clip-rule="evenodd" d="M87.7251 46.8753L91.1609 50.3111L94.5967 46.8753L91.1609 43.4395L87.7251 46.8753ZM86.1472 46.0864C85.7115 46.5221 85.7115 47.2285 86.1472 47.6642L90.372 51.889C90.8077 52.3247 91.5141 52.3247 91.9499 51.889L96.1746 47.6642C96.6104 47.2285 96.6104 46.5221 96.1746 46.0864L91.9499 41.8616C91.5141 41.4259 90.8077 41.4259 90.372 41.8616L86.1472 46.0864Z" fill="white"/>
<path d="M135.539 48.5912V63.8975C135.539 64.0356 135.427 64.1475 135.289 64.1475H120.345C120.207 64.1475 120.095 64.0356 120.095 63.8975V48.5912C120.095 48.5094 120.135 48.4328 120.202 48.386L127.674 43.1837C127.76 43.1239 127.874 43.1239 127.96 43.1837L135.432 48.386C135.499 48.4328 135.539 48.5094 135.539 48.5912Z" stroke="white" stroke-width="1.5"/>
<line x1="124.17" y1="55.9813" x2="131.475" y2="55.9813" stroke="white" stroke-width="1.5" stroke-linecap="round"/>
<line x1="124.17" y1="59.9211" x2="131.475" y2="59.9211" stroke="white" stroke-width="1.5" stroke-linecap="round"/>
<circle cx="127.802" cy="50.8215" r="2.13074" fill="white"/>
<path d="M155.193 53.5339C155.193 52.8275 155.264 52.1388 155.397 51.4726C155.931 51.4168 156.451 51.2565 156.926 50.9986L156.568 50.3395L156.926 50.9986C157.59 50.6382 158.141 50.1012 158.519 49.447C158.897 48.7927 159.087 48.0467 159.067 47.2914C159.053 46.7504 158.932 46.2198 158.714 45.7293C159.753 44.8107 160.967 44.1096 162.282 43.6672C162.597 44.1022 162.996 44.4727 163.457 44.7557C164.102 45.151 164.843 45.3603 165.599 45.3603C166.355 45.3603 167.097 45.151 167.741 44.7557C168.203 44.4727 168.602 44.1022 168.917 43.6672C170.232 44.1095 171.445 44.8107 172.485 45.7291C172.266 46.2198 172.145 46.7506 172.131 47.2919C172.111 48.0476 172.301 48.7939 172.679 49.4485C173.057 50.103 173.609 50.6401 174.273 51.0005C174.749 51.2584 175.269 51.4185 175.803 51.474C175.936 52.1393 176.007 52.8277 176.007 53.5339C176.007 54.2403 175.936 54.929 175.803 55.5951C175.269 55.6507 174.749 55.8109 174.274 56.0687C173.61 56.429 173.058 56.966 172.68 57.6202C172.302 58.2745 172.112 59.0207 172.131 59.7761C172.145 60.3172 172.266 60.848 172.485 61.3386C171.445 62.2571 170.232 62.9583 168.917 63.4007C168.602 62.9657 168.203 62.5952 167.741 62.3121C167.097 61.9168 166.355 61.7076 165.599 61.7076C164.843 61.7076 164.102 61.9168 163.457 62.3121C162.996 62.5952 162.597 62.9657 162.282 63.4007C160.967 62.9583 159.754 62.2572 158.714 61.3388C158.933 60.8481 159.054 60.3172 159.068 59.776C159.088 59.0203 158.898 58.2739 158.52 57.6194C158.142 56.9649 157.59 56.4277 156.925 56.0674L156.568 56.7267L156.925 56.0674C156.45 55.8096 155.93 55.6495 155.396 55.5939C155.263 54.9292 155.193 54.2408 155.193 53.5339Z" stroke="white" stroke-width="1.5"/>
<circle cx="165.6" cy="53.1421" r="2.54063" fill="white"/>
<mask id="path-37-inside-10_0_1" fill="white">
<rect x="38.6218" y="40.9158" width="18.6438" height="21.889" rx="1"/>
</mask>
<rect x="38.6218" y="40.9158" width="18.6438" height="21.889" rx="1" stroke="white" stroke-width="3" mask="url(#path-37-inside-10_0_1)"/>
<path d="M42.5717 50.7796H53.3691" stroke="white" stroke-width="1.5" stroke-linecap="round"/>
<path d="M42.5717 53.9187H53.3691" stroke="white" stroke-width="1.5" stroke-linecap="round"/>
<path d="M42.5717 57.0577L50.0802 57.0578" stroke="white" stroke-width="1.5" stroke-linecap="round"/>
<rect x="41.969" y="44.2654" width="7.34453" height="3.89307" rx="1" fill="white"/>
<path fill-rule="evenodd" clip-rule="evenodd" d="M41.969 62.1076V65.0363C41.969 65.6525 42.4685 66.152 43.0847 66.152H59.497C60.1132 66.152 60.6128 65.6525 60.6128 65.0363V45.3787C60.6128 44.7625 60.1132 44.263 59.497 44.263H56.8185V45.9366H58.9392V64.4784H43.6426V62.1076H41.969Z" fill="white"/>
</svg>
