<?xml version="1.0" encoding="utf-8"?>
<!-- Generator: Adobe Illustrator 23.0.1, SVG Export Plug-In . SVG Version: 6.00 Build 0)  -->
<svg version="1.1" id="Layer_1" xmlns="http://www.w3.org/2000/svg" xmlns:xlink="http://www.w3.org/1999/xlink" x="0px" y="0px"
	 viewBox="0 0 518 274" style="enable-background:new 0 0 518 274;" xml:space="preserve">
<style type="text/css">
	.st0{fill:#88BF3D;}
</style>
<g>
	<path class="st0" d="M110.5,34c26.4,0,49.1,9.6,68,28.8c18.9,19.2,28.4,42.2,28.4,69c0,27.3-9.5,50.4-28.6,69.5
		c-19.1,19.1-42.2,28.6-69.5,28.6c-27.1,0-50.2-9.6-69.3-28.7S10.9,159,10.9,131.9c0-27.3,9.6-50.5,28.9-69.5
		C59.1,43.5,82.6,34,110.5,34z M108.9,89c-11.4,0-21.1,4.2-29.1,12.6c-8,8.4-12,18.5-12,30.4c0,11.8,4,22,12.1,30.4
		c8.1,8.4,17.8,12.6,29.1,12.6c11.5,0,21.2-4.2,29.2-12.5c8-8.3,12-18.5,12-30.4c0-11.9-4-22.1-12-30.4
		C130.1,93.2,120.4,89,108.9,89z"/>
	<path class="st0" d="M359.1,38.7l-58,133h57.3v53.6H217.6l57.7-133h-61V38.7H359.1z"/>
	<path class="st0" d="M503.9,38.7l-58,133h57.3v53.6H362.4l57.7-133h-61V38.7H503.9z"/>
</g>
</svg>
