<svg width="150" height="46" viewBox="0 0 150 46" fill="none" xmlns="http://www.w3.org/2000/svg">
<path d="M67.6437 33C65.6137 33 63.9989 32.4396 62.7993 31.3187C61.5998 30.1822 61 28.5632 61 26.4615V22.5385C61 20.4368 61.5998 18.8255 62.7993 17.7047C63.9989 16.5682 65.6137 16 67.6437 16C69.6737 16 71.2885 16.5682 72.4881 17.7047C73.6877 18.8255 74.2874 20.4368 74.2874 22.5385V26.4615C74.2874 28.5632 73.6877 30.1822 72.4881 31.3187C71.2885 32.4396 69.6737 33 67.6437 33ZM67.6437 30.2445C68.7818 30.2445 69.6661 29.9098 70.2966 29.2404C70.9271 28.571 71.2424 27.6758 71.2424 26.5549V22.4451C71.2424 21.3242 70.9271 20.429 70.2966 19.7596C69.6661 19.0902 68.7818 18.7555 67.6437 18.7555C66.5211 18.7555 65.6368 19.0902 64.9908 19.7596C64.3603 20.429 64.045 21.3242 64.045 22.4451V26.5549C64.045 27.6758 64.3603 28.571 64.9908 29.2404C65.6368 29.9098 66.5211 30.2445 67.6437 30.2445Z" fill="#3C3EBD"/>
<path d="M76.2266 32.6731V28.75L84.2083 19.456V19.0824H76.4573V16.3269H87.3918V20.25L79.4101 29.544V29.9176H87.4379V32.6731H76.2266Z" fill="#3C3EBD"/>
<path d="M89.518 32.6731V28.75L97.4997 19.456V19.0824H89.7487V16.3269H100.683V20.25L92.7015 29.544V29.9176H100.729V32.6731H89.518Z" fill="#3C3EBD"/>
<path d="M109.128 32.6731V16.3269H115.772C116.787 16.3269 117.679 16.5371 118.448 16.9574C119.232 17.3622 119.84 17.9382 120.27 18.6854C120.716 19.4327 120.939 20.3201 120.939 21.3475V21.6745C120.939 22.6864 120.708 23.5737 120.247 24.3365C119.801 25.0838 119.186 25.6676 118.402 26.0879C117.633 26.4927 116.756 26.6951 115.772 26.6951H112.173V32.6731H109.128ZM112.173 23.8929H115.472C116.195 23.8929 116.779 23.6905 117.225 23.2857C117.671 22.881 117.894 22.3283 117.894 21.6277V21.3942C117.894 20.6937 117.671 20.141 117.225 19.7363C116.779 19.3315 116.195 19.1291 115.472 19.1291H112.173V23.8929Z" fill="#3C3EBD"/>
<path d="M123.05 32.6731V16.3269H126.095V23.0756H132.093V16.3269H135.138V32.6731H132.093V25.8777H126.095V32.6731H123.05Z" fill="#3C3EBD"/>
<path d="M138.189 32.6731V16.3269H144.833C145.848 16.3269 146.74 16.5371 147.509 16.9574C148.293 17.3622 148.9 17.9382 149.331 18.6854C149.777 19.4327 150 20.3201 150 21.3475V21.6745C150 22.6864 149.769 23.5737 149.308 24.3365C148.862 25.0838 148.247 25.6676 147.462 26.0879C146.694 26.4927 145.817 26.6951 144.833 26.6951H141.234V32.6731H138.189ZM141.234 23.8929H144.533C145.256 23.8929 145.84 23.6905 146.286 23.2857C146.732 22.881 146.955 22.3283 146.955 21.6277V21.3942C146.955 20.6937 146.732 20.141 146.286 19.7363C145.84 19.3315 145.256 19.1291 144.533 19.1291H141.234V23.8929Z" fill="#3C3EBD"/>
<rect x="19.0574" y="8.7662" width="7.37705" height="29.5082" rx="3.68852" transform="rotate(-90 19.0574 8.7662)" fill="url(#paint0_linear_107_710)"/>
<rect x="5.26611" y="25.7107" width="8.14315" height="8.04162" rx="4.02081" transform="rotate(-130.294 5.26611 25.7107)" fill="#666EE8"/>
<rect x="21.3604" y="45.0724" width="7.36347" height="36.4149" rx="3.68173" transform="rotate(-130.294 21.3604 45.0724)" fill="#3C3EBD"/>
<rect x="5.09961" y="44.2029" width="7.36347" height="59.4331" rx="3.68173" transform="rotate(-130.294 5.09961 44.2029)" fill="#666EE8"/>
<rect x="12.1389" y="18.9984" width="7.36347" height="20.4457" rx="3.68173" transform="rotate(-130.294 12.1389 18.9984)" fill="#666EE8"/>
<defs>
<linearGradient id="paint0_linear_107_710" x1="23.3607" y1="11.8107" x2="22.0229" y2="46.6933" gradientUnits="userSpaceOnUse">
<stop offset="0.233669" stop-color="#666EE8"/>
<stop offset="1" stop-color="#0A0097"/>
</linearGradient>
</defs>
</svg>
