<?xml version="1.0" standalone="no"?>
<!DOCTYPE svg PUBLIC "-//W3C//DTD SVG 20010904//EN"
 "http://www.w3.org/TR/2001/REC-SVG-20010904/DTD/svg10.dtd">
<svg version="1.0" xmlns="http://www.w3.org/2000/svg"
 width="1036.000000pt" height="1036.000000pt" viewBox="0 0 1036.000000 1036.000000"
 preserveAspectRatio="xMidYMid meet">
<metadata>
Created by potrace 1.14, written by Peter Selinger 2001-2017
</metadata>
<g transform="translate(0.000000,1036.000000) scale(0.100000,-0.100000)"
fill="#000000" stroke="none">
<path d="M2238 7245 c-2 -2 -64 -7 -138 -9 -74 -3 -144 -7 -155 -10 -11 -2
-45 -7 -75 -12 -57 -8 -68 -10 -72 -13 -2 -2 -14 -4 -28 -6 -46 -6 -74 -13
-164 -40 -218 -64 -435 -176 -631 -325 -80 -61 -301 -281 -356 -355 -54 -71
-128 -180 -148 -215 -54 -100 -127 -255 -137 -290 -4 -17 -33 -107 -41 -130
-4 -8 -8 -24 -10 -35 -2 -11 -8 -36 -13 -55 -5 -19 -12 -52 -16 -74 -3 -21 -7
-46 -9 -55 -4 -24 -18 -130 -21 -171 -6 -67 -5 -286 1 -345 4 -33 8 -78 10
-100 2 -22 4 -40 5 -40 2 0 7 -24 15 -75 20 -139 90 -341 171 -500 36 -68 68
-127 72 -130 4 -3 13 -16 21 -30 62 -112 291 -366 431 -478 36 -29 72 -59 81
-67 9 -8 20 -15 26 -15 5 0 18 -9 28 -20 10 -11 24 -20 32 -20 7 0 13 -4 13
-9 0 -5 8 -11 18 -15 9 -3 31 -14 47 -25 142 -92 415 -194 605 -226 210 -36
534 -40 705 -9 33 6 164 34 180 38 6 2 24 6 40 11 182 47 396 147 569 268 119
83 316 266 404 375 20 26 40 49 43 52 26 21 216 331 228 372 1 4 10 28 21 52
47 111 103 310 125 446 24 151 26 468 4 605 -4 28 -11 68 -14 89 -11 79 -43
194 -87 316 -31 86 -92 220 -105 234 -5 4 -8 11 -8 16 0 16 -129 205 -193 285
-135 166 -344 354 -515 462 -137 86 -343 173 -519 219 -5 1 -9 3 -10 4 -2 1
-14 3 -28 5 -14 2 -48 8 -75 13 -65 14 -142 22 -233 27 -40 2 -76 6 -81 9 -4
3 -10 4 -13 1z m110 -1117 c12 -1 22 -5 22 -9 0 -3 17 -9 38 -13 20 -3 50 -13
66 -21 15 -8 33 -15 38 -15 6 0 30 -13 55 -30 24 -16 47 -30 52 -30 9 0 116
-94 164 -145 82 -87 160 -230 191 -350 35 -139 38 -334 7 -443 -5 -18 -9 -33
-9 -35 1 -3 -12 -49 -21 -72 -75 -196 -231 -370 -417 -463 -118 -60 -197 -77
-354 -77 -145 0 -214 14 -328 66 -92 42 -169 98 -246 176 -165 167 -249 375
-248 613 0 254 83 452 263 630 72 71 202 160 234 160 7 0 16 4 20 9 7 12 104
41 170 51 42 6 218 5 303 -2z"/>
<path d="M4287 7136 c-2 -10 -1 -1042 2 -1057 1 -3 265 -5 589 -4 323 0 597
-2 608 -3 21 -4 21 -5 6 -35 -8 -18 -19 -39 -24 -47 -4 -8 -11 -22 -14 -30
-20 -50 -363 -846 -399 -925 -13 -27 -49 -111 -80 -185 -32 -74 -71 -163 -86
-198 -16 -34 -29 -64 -29 -67 0 -2 -13 -33 -30 -68 -16 -36 -30 -68 -30 -71 0
-3 -13 -34 -29 -68 -15 -35 -50 -112 -76 -173 -26 -60 -55 -128 -65 -150 -10
-22 -61 -139 -113 -260 -97 -226 -129 -300 -152 -347 -9 -19 -10 -28 -1 -31 6
-2 639 -3 1406 -3 l1395 1 2 533 c1 399 -2 532 -10 533 -7 1 -259 3 -562 4
-302 2 -555 3 -562 4 -8 1 -8 8 2 29 7 15 27 61 45 102 18 41 43 98 55 125 12
28 44 100 70 160 26 61 60 138 76 173 16 35 29 65 29 68 0 3 11 29 24 57 32
69 58 128 91 207 15 36 31 69 36 74 5 6 9 16 9 23 0 7 12 38 26 70 28 60 51
113 77 173 9 19 29 66 46 103 17 38 31 71 31 73 0 3 13 33 29 67 16 34 56 125
89 202 69 160 124 286 158 363 13 29 24 54 24 56 0 2 12 30 27 62 15 33 28 61
29 64 1 7 13 35 89 205 37 83 68 156 69 163 1 7 6 12 10 12 5 0 9 -235 9 -523
l-1 -523 609 0 c335 1 609 0 609 -2 0 -2 -11 -28 -25 -58 -14 -30 -25 -56 -25
-58 0 -2 -10 -25 -22 -52 -12 -27 -23 -51 -23 -54 -1 -3 -10 -23 -19 -45 -10
-22 -27 -60 -38 -85 -20 -46 -37 -85 -62 -142 -8 -18 -51 -118 -96 -223 -45
-104 -92 -210 -103 -235 -12 -25 -21 -47 -22 -50 -1 -13 -78 -186 -86 -194 -5
-6 -9 -15 -9 -22 0 -6 -14 -42 -32 -80 -17 -38 -33 -72 -34 -76 -1 -5 -3 -11
-4 -15 -1 -5 -2 -11 -1 -15 0 -5 -3 -8 -7 -8 -4 0 -14 -17 -21 -37 -8 -21 -24
-60 -36 -88 -13 -27 -46 -104 -74 -170 -29 -66 -58 -133 -65 -150 -8 -16 -18
-41 -24 -55 -6 -14 -16 -40 -24 -57 -7 -18 -17 -33 -21 -33 -5 0 -6 -4 -3 -8
3 -5 -1 -20 -9 -35 -7 -14 -46 -102 -85 -194 -40 -92 -81 -188 -92 -213 -24
-53 -88 -201 -88 -204 0 -1 632 -2 1404 -2 1257 0 1405 2 1408 16 3 13 2 1036
-1 1050 0 3 -256 6 -568 6 -536 1 -568 2 -565 18 2 10 17 48 34 84 16 37 34
76 38 87 5 11 25 55 44 98 20 44 36 85 36 93 0 8 5 14 10 14 6 0 10 5 10 12 0
10 165 395 245 573 13 28 35 78 49 112 14 35 38 89 52 120 14 32 31 72 38 88
26 59 35 81 62 140 15 33 28 65 30 70 1 6 15 39 32 75 16 36 51 115 77 175 48
112 81 186 116 262 10 24 19 45 19 48 0 2 11 28 24 57 73 161 84 188 78 188
-4 0 -2 4 3 8 6 4 34 63 64 132 47 110 79 184 87 200 1 3 -1300 6 -2891 6
-2016 0 -2895 -3 -2898 -10z"/>
</g>
</svg>
